# Rhino

v -405.23720107518517 310.78152318525633 217.54060363769531
v 865.36822086873531 121.55896333462195 217.54060363769531
v -390.50733146732159 409.69072409159691 217.54060363769531
v 880.0980904765986 220.46816424096255 217.54060363769531
v -390.50733146732159 409.69072409159691 117.54058074951172
v 880.0980904765986 220.46816424096255 117.54058074951172
v -405.23720107518517 310.78152318525633 117.54058074951172
v 865.36822086873531 121.55896333462195 117.54058074951172
v -390.50733146732159 409.69072409159691 217.54060363769531
v 880.0980904765986 220.46816424096255 217.54060363769531
v -390.50733146732159 409.69072409159691 117.54058074951172
v 880.0980904765986 220.46816424096255 117.54058074951172
v 880.0980904765986 220.46816424096255 217.54060363769531
v 865.36822086873531 121.55896333462195 217.54060363769531
v 880.0980904765986 220.46816424096255 117.54058074951172
v 865.36822086873531 121.55896333462195 117.54058074951172
v 865.36822086873531 121.55896333462195 217.54060363769531
v -405.23720107518517 310.78152318525633 217.54060363769531
v 865.36822086873531 121.55896333462195 117.54058074951172
v -405.23720107518517 310.78152318525633 117.54058074951172
v -405.23720107518517 310.78152318525633 217.54060363769531
v -390.50733146732159 409.69072409159691 217.54060363769531
v -405.23720107518517 310.78152318525633 117.54058074951172
v -390.50733146732159 409.69072409159691 117.54058074951172
vt 0 0
vt 1 0
vt 0 1
vt 1 1
vt 0 0
vt 1 0
vt 0 1
vt 1 1
vt 0 0
vt 1 0
vt 0 1
vt 1 1
vt 0 0
vt 1 0
vt 0 1
vt 1 1
vt 0 0
vt 1 0
vt 0 1
vt 1 1
vt 0 0
vt 1 0
vt 0 1
vt 1 1
vn 0 0 1
vn 0 0 1
vn 0 0 1
vn 0 0 1
vn 0 0 -1
vn 0 0 -1
vn 0 0 -1
vn 0 0 -1
vn 0.14729870855808258 0.98909205198287964 0
vn 0.14729870855808258 0.98909205198287964 0
vn 0.14729870855808258 0.98909205198287964 0
vn 0.14729870855808258 0.98909205198287964 0
vn 0.98909205198287964 -0.14729870855808258 0
vn 0.98909205198287964 -0.14729870855808258 0
vn 0.98909205198287964 -0.14729870855808258 0
vn 0.98909205198287964 -0.14729870855808258 0
vn -0.14729870855808258 -0.98909205198287964 0
vn -0.14729870855808258 -0.98909205198287964 0
vn -0.14729870855808258 -0.98909205198287964 0
vn -0.14729870855808258 -0.98909205198287964 0
vn -0.98909205198287964 0.14729870855808258 0
vn -0.98909205198287964 0.14729870855808258 0
vn -0.98909205198287964 0.14729870855808258 0
vn -0.98909205198287964 0.14729870855808258 0
f 1/1/1 2/2/2 4/4/4 3/3/3
f 5/5/5 6/6/6 8/8/8 7/7/7
f 9/9/9 10/10/10 12/12/12 11/11/11
f 13/13/13 14/14/14 16/16/16 15/15/15
f 17/17/17 18/18/18 20/20/20 19/19/19
f 21/21/21 22/22/22 24/24/24 23/23/23
