# Rhino

v 1.792782187461853 0.013982929289340973 1.7913672924041748
v 2.0183272361755371 0.013982930220663548 1.7913739681243896
v 1.7927825450897217 0.0099658453837037086 1.7894941568374634
v 2.0183274745941162 0.0099658463150262833 1.7895008325576782
v 1.7927825450897217 0.0099658453837037086 1.7894941568374634
v 2.0183274745941162 0.0099658463150262833 1.7895008325576782
v 1.7927833795547485 0.025161849334836006 1.756906270980835
v 2.0183284282684326 0.025161849334836006 1.7569129467010498
v 1.7927833795547485 0.025161849334836006 1.756906270980835
v 2.0183284282684326 0.025161849334836006 1.7569129467010498
v 1.7927831411361694 0.029178932309150696 1.7587794065475464
v 2.0183277130126953 0.029178932309150696 1.7587860822677612
v 1.7927831411361694 0.029178932309150696 1.7587794065475464
v 2.0183277130126953 0.029178932309150696 1.7587860822677612
v 1.792782187461853 0.013982929289340973 1.7913672924041748
v 2.0183272361755371 0.013982930220663548 1.7913739681243896
v 1.792782187461853 0.013982929289340973 1.7913672924041748
v 1.7927825450897217 0.0099658453837037086 1.7894941568374634
v 1.7927833795547485 0.025161849334836006 1.756906270980835
v 1.7927831411361694 0.029178932309150696 1.7587794065475464
v 2.0183272361755371 0.013982930220663548 1.7913739681243896
v 2.0183274745941162 0.0099658463150262833 1.7895008325576782
v 2.0183284282684326 0.025161849334836006 1.7569129467010498
v 2.0183277130126953 0.029178932309150696 1.7587860822677612
vt 0 0
vt 0 1
vt 0.16851462423801422 0
vt 0.16851462423801422 1
vt 0.16851462423801422 0
vt 0.16851462423801422 1
vt 0.47608208656311035 0
vt 0.47608208656311035 1
vt 0.47608208656311035 0
vt 0.47608208656311035 1
vt 0.64459669589996338 0
vt 0.64459669589996338 1
vt 0.64459669589996338 0
vt 0.64459669589996338 1
vt 0.9521641731262207 0
vt 0.9521641731262207 1
vt 1 0
vt 0.95216512680053711 0
vt 0.95216512680053711 0.24513490498065948
vt 1 0.24513490498065948
vt 1 1
vt 0.95216512680053711 1
vt 0.95216512680053711 0.75486510992050171
vt 1 0.75486510992050171
vn -2.6642026568879373E-05 -0.42261871695518494 0.90630757808685303
vn -2.6642026568879373E-05 -0.42261871695518494 0.90630757808685303
vn -2.6642026568879373E-05 -0.42261871695518494 0.90630757808685303
vn -2.6642026568879373E-05 -0.42261871695518494 0.90630757808685303
vn 1.2426519788277801E-05 -0.90630757808685303 -0.42261871695518494
vn 1.2426519788277801E-05 -0.90630757808685303 -0.42261871695518494
vn 1.2426519788277801E-05 -0.90630757808685303 -0.42261871695518494
vn 1.2426519788277801E-05 -0.90630757808685303 -0.42261871695518494
vn 2.6642026568879373E-05 0.42261871695518494 -0.90630757808685303
vn 2.6642026568879373E-05 0.42261871695518494 -0.90630757808685303
vn 2.6642026568879373E-05 0.42261871695518494 -0.90630757808685303
vn 2.6642026568879373E-05 0.42261871695518494 -0.90630757808685303
vn -1.2426519788277801E-05 0.90630757808685303 0.42261871695518494
vn -1.2426519788277801E-05 0.90630757808685303 0.42261871695518494
vn -1.2426519788277801E-05 0.90630757808685303 0.42261871695518494
vn -1.2426519788277801E-05 0.90630757808685303 0.42261871695518494
vn -1 4.7695234428601907E-09 -2.9401095162029378E-05
vn -1 4.7695234428601907E-09 -2.9401095162029378E-05
vn -1 4.7695234428601907E-09 -2.9401095162029378E-05
vn -1 4.7695234428601907E-09 -2.9401095162029378E-05
vn 1 -4.7695234428601907E-09 2.9401095162029378E-05
vn 1 -4.7695234428601907E-09 2.9401095162029378E-05
vn 1 -4.7695234428601907E-09 2.9401095162029378E-05
vn 1 -4.7695234428601907E-09 2.9401095162029378E-05
f 1/1/1 3/3/3 4/4/4 2/2/2
f 5/5/5 7/7/7 8/8/8 6/6/6
f 9/9/9 11/11/11 12/12/12 10/10/10
f 13/13/13 15/15/15 16/16/16 14/14/14
f 17/17/17 20/20/20 19/19/19 18/18/18
f 23/23/23 24/24/24 21/21/21 22/22/22
