# Rhino

v -43.621031078341161 -72.868375359396424 65.200004577636719
v -13.535047801973974 -184.8988814934296 65.200004577636719
v 161.12437438964844 -17.883647918701172 65.200004577636719
v 191.21035766601563 -129.91415405273435 65.200004577636719
v 161.12437438964844 -17.883647918701172 20.100000381469727
v 191.21035766601563 -129.91415405273435 20.100000381469727
v -43.621031078341161 -72.868375359396424 20.100000381469727
v -13.535047801973974 -184.8988814934296 20.100000381469727
v 161.12437438964844 -17.883647918701172 65.200004577636719
v 191.21035766601563 -129.91415405273435 65.200004577636719
v 161.12437438964844 -17.883647918701172 20.100000381469727
v 191.21035766601563 -129.91415405273435 20.100000381469727
v 191.21035766601563 -129.91415405273435 65.200004577636719
v -13.535047801973974 -184.8988814934296 65.200004577636719
v 191.21035766601563 -129.91415405273435 20.100000381469727
v -13.535047801973974 -184.8988814934296 20.100000381469727
v -13.535047801973974 -184.8988814934296 65.200004577636719
v -43.621031078341161 -72.868375359396424 65.200004577636719
v -13.535047801973974 -184.8988814934296 20.100000381469727
v -43.621031078341161 -72.868375359396424 20.100000381469727
v -43.621031078341161 -72.868375359396424 65.200004577636719
v 161.12437438964844 -17.883647918701172 65.200004577636719
v -43.621031078341161 -72.868375359396424 20.100000381469727
v 161.12437438964844 -17.883647918701172 20.100000381469727
vt 0 0
vt 1 0
vt 0 1
vt 1 1
vt 0 0
vt 1 0
vt 0 1
vt 1 1
vt 0 0
vt 1 0
vt 0 1
vt 1 1
vt 0 0
vt 1 0
vt 0 1
vt 1 1
vt 0 0
vt 1 0
vt 0 1
vt 1 1
vt 0 0
vt 1 0
vt 0 1
vt 1 1
vn 0 0 1
vn 0 0 1
vn 0 0 1
vn 0 0 1
vn 0 0 -1
vn 0 0 -1
vn 0 0 -1
vn 0 0 -1
vn 0.96578019857406616 0.25936192274093628 0
vn 0.96578019857406616 0.25936192274093628 0
vn 0.96578019857406616 0.25936192274093628 0
vn 0.96578019857406616 0.25936192274093628 0
vn 0.25936192274093628 -0.96578019857406616 0
vn 0.25936192274093628 -0.96578019857406616 0
vn 0.25936192274093628 -0.96578019857406616 0
vn 0.25936192274093628 -0.96578019857406616 0
vn -0.96578019857406616 -0.25936192274093628 0
vn -0.96578019857406616 -0.25936192274093628 0
vn -0.96578019857406616 -0.25936192274093628 0
vn -0.96578019857406616 -0.25936192274093628 0
vn -0.25936192274093628 0.96578019857406616 0
vn -0.25936192274093628 0.96578019857406616 0
vn -0.25936192274093628 0.96578019857406616 0
vn -0.25936192274093628 0.96578019857406616 0
f 1/1/1 2/2/2 4/4/4 3/3/3
f 5/5/5 6/6/6 8/8/8 7/7/7
f 9/9/9 10/10/10 12/12/12 11/11/11
f 13/13/13 14/14/14 16/16/16 15/15/15
f 17/17/17 18/18/18 20/20/20 19/19/19
f 21/21/21 22/22/22 24/24/24 23/23/23
