# Rhino

v -69.199996948242188 -185 356.80006408691406
v -50 -185 356.80006408691406
v -69.199996948242188 -250 356.80006408691406
v -50 -250 356.80006408691406
v -69.199996948242188 -250 293.80007934570313
v -50 -250 293.80007934570313
v -69.199996948242188 -185 293.80007934570313
v -50 -185 293.80007934570313
v -69.199996948242188 -250 356.80006408691406
v -50 -250 356.80006408691406
v -69.199996948242188 -250 293.80007934570313
v -50 -250 293.80007934570313
v -50 -250 356.80006408691406
v -50 -185 356.80006408691406
v -50 -250 293.80007934570313
v -50 -185 293.80007934570313
v -50 -185 356.80006408691406
v -69.199996948242188 -185 356.80006408691406
v -50 -185 293.80007934570313
v -69.199996948242188 -185 293.80007934570313
v -69.199996948242188 -185 356.80006408691406
v -69.199996948242188 -250 356.80006408691406
v -69.199996948242188 -185 293.80007934570313
v -69.199996948242188 -250 293.80007934570313
vt 0 0
vt 1 0
vt 0 1
vt 1 1
vt 0 0
vt 1 0
vt 0 1
vt 1 1
vt 0 0
vt 1 0
vt 0 1
vt 1 1
vt 0 0
vt 1 0
vt 0 1
vt 1 1
vt 0 0
vt 1 0
vt 0 1
vt 1 1
vt 0 0
vt 1 0
vt 0 1
vt 1 1
vn 0 0 1
vn 0 0 1
vn 0 0 1
vn 0 0 1
vn 0 0 -1
vn 0 0 -1
vn 0 0 -1
vn 0 0 -1
vn 0 -1 0
vn 0 -1 0
vn 0 -1 0
vn 0 -1 0
vn 1 0 0
vn 1 0 0
vn 1 0 0
vn 1 0 0
vn 0 1 0
vn 0 1 0
vn 0 1 0
vn 0 1 0
vn -1 0 0
vn -1 0 0
vn -1 0 0
vn -1 0 0
f 1/1/1 3/3/3 4/4/4 2/2/2
f 5/5/5 7/7/7 8/8/8 6/6/6
f 9/9/9 11/11/11 12/12/12 10/10/10
f 13/13/13 15/15/15 16/16/16 14/14/14
f 17/17/17 19/19/19 20/20/20 18/18/18
f 21/21/21 23/23/23 24/24/24 22/22/22
v -104.19999694824219 -185 293.80007934570313
v -49.200000762939453 -185 293.80007934570313
v -104.19999694824219 -250 293.80007934570313
v -49.200000762939453 -250 293.80007934570313
v -104.19999694824219 -250 217.29998779296875
v -49.200000762939453 -250 217.29998779296875
v -104.19999694824219 -185 217.29998779296875
v -49.200000762939453 -185 217.29998779296875
v -104.19999694824219 -250 293.80007934570313
v -49.200000762939453 -250 293.80007934570313
v -104.19999694824219 -250 217.29998779296875
v -49.200000762939453 -250 217.29998779296875
v -49.200000762939453 -250 293.80007934570313
v -49.200000762939453 -185 293.80007934570313
v -49.200000762939453 -250 217.29998779296875
v -49.200000762939453 -185 217.29998779296875
v -49.200000762939453 -185 293.80007934570313
v -104.19999694824219 -185 293.80007934570313
v -49.200000762939453 -185 217.29998779296875
v -104.19999694824219 -185 217.29998779296875
v -104.19999694824219 -185 293.80007934570313
v -104.19999694824219 -250 293.80007934570313
v -104.19999694824219 -185 217.29998779296875
v -104.19999694824219 -250 217.29998779296875
vt 0 0
vt 1 0
vt 0 1
vt 1 1
vt 0 0
vt 1 0
vt 0 1
vt 1 1
vt 0 0
vt 1 0
vt 0 1
vt 1 1
vt 0 0
vt 1 0
vt 0 1
vt 1 1
vt 0 0
vt 1 0
vt 0 1
vt 1 1
vt 0 0
vt 1 0
vt 0 1
vt 1 1
vn 0 0 1
vn 0 0 1
vn 0 0 1
vn 0 0 1
vn 0 0 -1
vn 0 0 -1
vn 0 0 -1
vn 0 0 -1
vn 0 -1 0
vn 0 -1 0
vn 0 -1 0
vn 0 -1 0
vn 1 0 0
vn 1 0 0
vn 1 0 0
vn 1 0 0
vn 0 1 0
vn 0 1 0
vn 0 1 0
vn 0 1 0
vn -1 0 0
vn -1 0 0
vn -1 0 0
vn -1 0 0
f 25/25/25 27/27/27 28/28/28 26/26/26
f 29/29/29 31/31/31 32/32/32 30/30/30
f 33/33/33 35/35/35 36/36/36 34/34/34
f 37/37/37 39/39/39 40/40/40 38/38/38
f 41/41/41 43/43/43 44/44/44 42/42/42
f 45/45/45 47/47/47 48/48/48 46/46/46
v -64 -185 152.29999542236328
v 64 -185 152.29999542236328
v -64 -250 152.29999542236328
v 64 -250 152.29999542236328
v -64 -250 217.29998779296875
v 64 -250 217.29998779296875
v -64 -185 217.29998779296875
v 64 -185 217.29998779296875
v -64 -250 152.29999542236328
v 64 -250 152.29999542236328
v -64 -250 217.29998779296875
v 64 -250 217.29998779296875
v 64 -250 152.29999542236328
v 64 -185 152.29999542236328
v 64 -250 217.29998779296875
v 64 -185 217.29998779296875
v 64 -185 152.29999542236328
v -64 -185 152.29999542236328
v 64 -185 217.29998779296875
v -64 -185 217.29998779296875
v -64 -185 152.29999542236328
v -64 -250 152.29999542236328
v -64 -185 217.29998779296875
v -64 -250 217.29998779296875
vt 0 0
vt 1 0
vt 0 1
vt 1 1
vt 0 0
vt 1 0
vt 0 1
vt 1 1
vt 0 0
vt 1 0
vt 0 1
vt 1 1
vt 0 0
vt 1 0
vt 0 1
vt 1 1
vt 0 0
vt 1 0
vt 0 1
vt 1 1
vt 0 0
vt 1 0
vt 0 1
vt 1 1
vn 0 0 -1
vn 0 0 -1
vn 0 0 -1
vn 0 0 -1
vn 0 0 1
vn 0 0 1
vn 0 0 1
vn 0 0 1
vn 0 -1 0
vn 0 -1 0
vn 0 -1 0
vn 0 -1 0
vn 1 0 0
vn 1 0 0
vn 1 0 0
vn 1 0 0
vn 0 1 0
vn 0 1 0
vn 0 1 0
vn 0 1 0
vn -1 0 0
vn -1 0 0
vn -1 0 0
vn -1 0 0
f 49/49/49 50/50/50 52/52/52 51/51/51
f 53/53/53 54/54/54 56/56/56 55/55/55
f 57/57/57 58/58/58 60/60/60 59/59/59
f 61/61/61 62/62/62 64/64/64 63/63/63
f 65/65/65 66/66/66 68/68/68 67/67/67
f 69/69/69 70/70/70 72/72/72 71/71/71
v -64 250 92.299997329711914
v 64 250 92.299997329711914
v -64 -250 92.299997329711914
v 64 -250 92.299997329711914
v -64 -250 152.29999542236328
v 64 -250 152.29999542236328
v -64 250 152.29999542236328
v 64 250 152.29999542236328
v -64 -250 92.299997329711914
v 64 -250 92.299997329711914
v -64 -250 152.29999542236328
v 64 -250 152.29999542236328
v 64 -250 92.299997329711914
v 64 250 92.299997329711914
v 64 -250 152.29999542236328
v 64 250 152.29999542236328
v 64 250 92.299997329711914
v -64 250 92.299997329711914
v 64 250 152.29999542236328
v -64 250 152.29999542236328
v -64 250 92.299997329711914
v -64 -250 92.299997329711914
v -64 250 152.29999542236328
v -64 -250 152.29999542236328
vt 0 0
vt 1 0
vt 0 1
vt 1 1
vt 0 0
vt 1 0
vt 0 1
vt 1 1
vt 0 0
vt 1 0
vt 0 1
vt 1 1
vt 0 0
vt 1 0
vt 0 1
vt 1 1
vt 0 0
vt 1 0
vt 0 1
vt 1 1
vt 0 0
vt 1 0
vt 0 1
vt 1 1
vn 0 0 -1
vn 0 0 -1
vn 0 0 -1
vn 0 0 -1
vn 0 0 1
vn 0 0 1
vn 0 0 1
vn 0 0 1
vn 0 -1 0
vn 0 -1 0
vn 0 -1 0
vn 0 -1 0
vn 1 0 0
vn 1 0 0
vn 1 0 0
vn 1 0 0
vn 0 1 0
vn 0 1 0
vn 0 1 0
vn 0 1 0
vn -1 0 0
vn -1 0 0
vn -1 0 0
vn -1 0 0
f 73/73/73 74/74/74 76/76/76 75/75/75
f 77/77/77 78/78/78 80/80/80 79/79/79
f 81/81/81 82/82/82 84/84/84 83/83/83
f 85/85/85 86/86/86 88/88/88 87/87/87
f 89/89/89 90/90/90 92/92/92 91/91/91
f 93/93/93 94/94/94 96/96/96 95/95/95
