# Rhino

v 6.1070107744971077E-05 1692.2710215528396 356.8008141659609
v 6.1070107744971077E-05 1692.2710215528396 356.8008141659609
v 49.99954986572093 1734.7954356153396 256.79941035736726
v 49.99954986572093 1734.7954356153396 256.79941035736726
v 49.99954986572093 1734.7954356153396 256.79941035736726
v -50.00045013427907 1734.7951914747146 256.80038691986681
v -50.00045013427907 1734.7951914747146 256.80038691986681
v -50.00045013427907 1734.7951914747146 256.80038691986681
v -49.999938964845953 1692.2710215528396 356.80026484955442
v -49.999938964845953 1692.2710215528396 356.80026484955442
v -49.999938964845953 1692.2710215528396 356.80026484955442
v 50.000061035154047 1692.2710215528396 356.79934932221113
v 50.000061035154047 1692.2710215528396 356.79934932221113
v 50.000061035154047 1692.2710215528396 356.79934932221113
v -50.000011444091868 -1692.2709698796327 356.80050899018897
v -50.000011444091868 -1692.2709698796327 356.80050899018897
v -50.000011444091868 -1692.2709698796327 356.80050899018897
v -49.999973297118707 -1692.2709713934146 256.80050899018897
v -49.999973297118707 -1692.2709713934146 256.80050899018897
v -49.999973297118707 -1692.2709713934146 256.80050899018897
v 49.999992370605398 -1692.270970135248 356.79953242768943
v 49.999992370605398 -1692.270970135248 356.79953242768943
v 49.999992370605398 -1692.270970135248 356.79953242768943
v -50.000175476075178 518.98220319346456 256.79934932221397
v -50.000175476075178 518.98220319346456 256.79934932221397
v -50.000175476075178 518.98220319346456 256.79934932221397
v -49.999702453614496 518.98220319346456 306.79934932221397
v -49.999702453614496 518.98220319346456 306.79934932221397
v -49.999702453614496 518.98220319346456 306.79934932221397
v 49.99953460693277 304.53151959971456 256.79977656830886
v 49.99953460693277 304.53151959971456 256.79977656830886
v 49.99953460693277 304.53151959971456 256.79977656830886
v 49.999584197996818 541.15163678721456 306.80050899018318
v 49.999584197996818 541.15163678721456 306.80050899018318
v 49.999584197996818 541.15163678721456 306.80050899018318
v -50.00012588501113 755.60232038096456 306.80014277924465
v -50.00012588501113 755.60232038096456 306.80014277924465
v -50.00012588501113 755.60232038096456 306.80014277924465
v -49.999618530274546 755.60232038096456 256.80014277924465
v -49.999618530274546 755.60232038096456 256.80014277924465
v -49.999618530274546 755.60232038096456 256.80014277924465
v 0.00014717850525629848 1240.3806406934646 356.79934932221227
v 0.00014717850525629848 1240.3806406934646 356.79934932221227
v 0.00014717850525629848 1240.3806406934646 356.79934932221227
v -0.00036559038706917088 1282.9050547559646 256.7994103573684
v -0.00036559038706917088 1282.9050547559646 256.7994103573684
v -0.00036559038706917088 1282.9050547559646 256.7994103573684
v -50.000366210938942 1282.9048106153396 256.80087520111817
v -50.000366210938942 1282.9048106153396 256.80087520111817
v -50.000366210938942 1282.9048106153396 256.80087520111817
v -50.000141143800334 1391.5710703809646 256.79934932221158
v -50.000141143800334 1391.5710703809646 256.79934932221158
v -50.000141143800334 1391.5710703809646 256.79934932221158
v -0.00013998524960781358 1391.5710703809646 256.79989863861806
v -0.00013998524960781358 1391.5710703809646 256.79989863861806
v -0.00013998524960781358 1391.5710703809646 256.79989863861806
v -49.999626159669958 1349.0466563184646 356.79928828705545
v -49.999626159669958 1349.0466563184646 356.79928828705545
v -49.999626159669958 1349.0466563184646 356.79928828705545
v 0.0003727973069660554 1349.0469004590896 356.79977656830567
v 0.0003727973069660554 1349.0469004590896 356.79977656830567
v 0.0003727973069660554 1349.0469004590896 356.79977656830567
v 50.000026702881293 -1692.2709697416813 256.79953242768943
v 50.000026702881293 -1692.2709697416813 256.79953242768943
v 50.000026702881293 -1692.2709697416813 256.79953242768943
v 0.00016237898627749234 -312.11118059559794 256.79989863862284
v 0.00016237898627749234 -312.11118059559794 256.79989863862284
v 0.00016237898627749234 -312.11118059559794 256.79989863862284
v -1.9843843394125202E-05 -210.72739153309794 256.79965449799749
v -1.9843843394125202E-05 -210.72739153309794 256.79965449799749
v -1.9843843394125202E-05 -210.72739153309794 256.79965449799749
v -50.000019073486826 -210.72739153309817 256.79910518159102
v -50.000019073486826 -210.72739153309817 256.79910518159102
v -50.000019073486826 -210.72739153309817 256.79910518159102
v -49.999835968018012 -312.11118059559817 256.79934932221636
v -49.999835968018012 -312.11118059559817 256.79934932221636
v -49.999835968018012 -312.11118059559817 256.79934932221636
v -49.999832153321243 -328.80453997059772 356.79977656831011
v -49.999832153321243 -328.80453997059772 356.79977656831011
v -49.999832153321243 -328.80453997059772 356.79977656831011
v -49.999851226808559 1240.3806406934646 356.80075313080579
v -49.999851226808559 1240.3806406934646 356.80075313080579
v -49.999851226808559 1240.3806406934646 356.80075313080579
v -50.000015258790057 -227.42075090809772 356.79953242768488
v -50.000015258790057 -227.42075090809772 356.79953242768488
v -50.000015258790057 -227.42075090809772 356.79953242768488
v 0.00016851851157695811 -328.80453997059772 356.80026484956034
v 0.00016851851157695811 -328.80453997059772 356.80026484956034
v 0.00016851851157695811 -328.80453997059772 356.80026484956034
v -1.3704316275670051E-05 -227.42075090809772 356.80002070893511
v -1.3704316275670051E-05 -227.42075090809772 356.80002070893511
v -1.3704316275670051E-05 -227.42075090809772 356.80002070893511
v 50.000007629393451 304.53151959971456 306.79977656830886
v 50.000007629393451 304.53151959971456 306.79977656830886
v 50.000007629393451 304.53151959971456 306.79977656830886
v 50.000091552733402 541.15188092783956 256.80050899018318
v 50.000091552733402 541.15188092783956 256.80050899018318
v 50.000091552733402 541.15188092783956 256.80050899018318
vn 9.4604529294883832E-06 -2.9786244795104722E-06 1
vn 2.8609929358935915E-07 0.92025089263916016 0.39132887125015259
vn 4.8714719014242291E-06 0.92025113105773926 0.39132833480834961
vn 1 2.8030150645008689E-08 -1.7484833136904854E-08
vn -1.1713778803823516E-05 1.5269306459231302E-06 -1
vn -2.8483088954089908E-06 1.0076940952785662E-06 -1
vn -1 -9.0027293708772049E-07 4.7288663154176902E-06
vn 2.8609929358935915E-07 0.92025089263916016 0.39132887125015259
vn -4.2992733142455108E-06 0.92025065422058105 0.39132943749427795
vn -1 -9.0582938128136448E-07 4.7455741878366098E-06
vn -1.037596939568175E-05 -2.9341847493924433E-06 1
vn 1 5.9913276118095382E-07 -1.7087530068238266E-05
vn 4.8714719014242291E-06 0.92025113105773926 0.39132833480834961
vn 1.8012102373177186E-05 -1.6108385807456216E-06 1
vn 6.9806445068820722E-09 -1 5.6010778237691738E-09
vn 3.255208184782532E-06 5.9685831388378574E-08 1
vn -1 1.3149607980267319E-07 -3.8146973224684189E-07
vn -2.8483073037932627E-06 -3.3904467500178725E-07 -1
vn 6.9806445068820722E-09 -1 5.6010778237691738E-09
vn -1 1.1549921907771932E-07 -1.633563613268052E-07
vn 3.1641760870115831E-05 8.4067136185694835E-07 1
vn 6.9806445068820722E-09 -1 5.6010778237691738E-09
vn 1 3.1248379883663802E-08 -1.7148196320704301E-06
vn 0.90630823373794556 0.42261725664138794 -8.5740830400027335E-06
vn 6.5546223595447373E-06 3.0911426307511647E-08 -1
vn -1 -2.1433855579289229E-07 9.4604492915095761E-06
vn 1.0881938578677364E-05 3.224341526220087E-06 -1
vn 0.90630823373794556 0.42261725664138794 -8.5740830400027335E-06
vn -1 -3.6643734802055405E-07 6.9564603109029122E-06
vn 0.90630823373794556 0.42261725664138794 -8.5740830400027335E-06
vn 1 8.2784481492126361E-08 -2.9246011763461865E-06
vn 9.9540548035292886E-06 -7.5161943868806702E-07 -1
vn 1.0881938578677364E-05 3.224341526220087E-06 -1
vn -0.90630817413330078 -0.42261746525764465 -1.0228175597148947E-05
vn 1 9.0884299197568907E-07 -2.5378776626894251E-05
vn -0.90630817413330078 -0.42261746525764465 -1.0228175597148947E-05
vn 1.0853345884243026E-05 3.3533142413944006E-06 -1
vn -1 -1.1264869499427732E-06 1.1381661352061201E-05
vn -1.4364482012751978E-05 -2.6945713216264267E-08 -1
vn -0.90630817413330078 -0.42261746525764465 -1.0228175597148947E-05
vn -1 -4.6339869186340366E-07 -8.0508407052093389E-08
vn -1 2.0761685846082401E-06 6.0106385717517696E-06
vn 8.9792001745081507E-06 0.9202502965927124 0.39133027195930481
vn 1.3518733794626314E-05 -1.220504600496497E-06 1
vn 8.9792001745081507E-06 0.9202502965927124 0.39133027195930481
vn -1 2.0761685846082401E-06 6.0106385717517696E-06
vn -1.5255497601174284E-05 8.7980151874944568E-07 -1
vn -1 -4.6339869186340366E-07 -8.0508407052093389E-08
vn 8.9792001745081507E-06 0.9202502965927124 0.39133027195930481
vn -2.9296881621121429E-05 1.3889559795643436E-06 -1
vn -2.8483088954089908E-06 1.0076940952785662E-06 -1
vn 6.307138846750604E-06 -0.9202502965927124 -0.39133027195930481
vn -1 -9.0582938128136448E-07 4.7455741878366098E-06
vn -1 2.0761685846082401E-06 6.0106385717517696E-06
vn 6.307138846750604E-06 -0.9202502965927124 -0.39133027195930481
vn -2.1729869331466034E-05 2.7505955131346127E-06 -1
vn 6.307138846750604E-06 -0.9202502965927124 -0.39133027195930481
vn -1.037596939568175E-05 -2.9341847493924433E-06 1
vn -1 -9.1138582547500846E-07 4.7622825150028802E-06
vn 6.307138846750604E-06 -0.9202502965927124 -0.39133027195930481
vn -1 2.0761685846082401E-06 6.0106385717517696E-06
vn 1.815194082155358E-05 -3.2963498597382568E-06 1
vn 1 8.2784481492126361E-08 -2.9246011763461865E-06
vn 6.9806445068820722E-09 -1 5.6010778237691738E-09
vn -3.3988185350608546E-06 -1.0838993347306314E-07 -1
vn -1.708451350168616E-06 0.98635131120681763 0.16465450823307037
vn -1 -1.7973571857510251E-06 -2.3864316744948155E-07
vn 6.8197459768271074E-06 -8.7493816636197153E-07 -1
vn -1 -1.7973571857510251E-06 -2.3864316744948155E-07
vn 1.708451350168616E-06 -0.98635131120681763 -0.16465450823307037
vn 1.6905747543205507E-05 -1.1885615549545037E-06 -1
vn 6.5546223595447373E-06 3.0911426307511647E-08 -1
vn 1.708451350168616E-06 -0.98635131120681763 -0.16465450823307037
vn -1 1.0603432798461654E-07 4.7848889153101481E-06
vn -1.708451350168616E-06 0.98635131120681763 0.16465450823307037
vn -2.8483073037932627E-06 -3.3904467500178725E-07 -1
vn -1 9.9502365458192799E-08 5.4757020251372523E-08
vn -1.708451350168616E-06 0.98635131120681763 0.16465450823307037
vn -1 1.1549921907771932E-07 -1.633563613268052E-07
vn 3.255208184782532E-06 5.9685831388378574E-08 1
vn 9.1552738012978807E-06 -1.8712319160840707E-07 1
vn 8.9792001745081507E-06 0.9202502965927124 0.39133027195930481
vn -1 -7.1373887067238684E-07 6.0585189203266054E-06
vn 1.708451350168616E-06 -0.98635131120681763 -0.16465450823307037
vn 9.1552738012978807E-06 -1.8712319160840707E-07 1
vn -1 2.6908227823696507E-07 -2.2392191567632835E-06
vn -1 -1.7973571857510251E-06 -2.3864316744948155E-07
vn -1.708451350168616E-06 0.98635131120681763 0.16465450823307037
vn 4.1787341615417972E-05 1.2339568229435827E-06 1
vn 1.708451350168616E-06 -0.98635131120681763 -0.16465450823307037
vn -1 -1.7973571857510251E-06 -2.3864316744948155E-07
vn 2.417283940303605E-05 6.8315375756355934E-07 1
vn 0.90630823373794556 0.42261725664138794 -8.5740830400027335E-06
vn 1.0910532182606403E-05 3.0953685836720979E-06 -1
vn 1 6.1738415979561978E-07 -1.8056569388136268E-05
vn 1 2.8030150645008689E-08 -1.7484833136904854E-08
vn -0.90630817413330078 -0.42261746525764465 -1.0228175597148947E-05
vn 4.4431608330341987E-06 -1.1816232472483534E-06 -1
f 2//2 13//13 3//3 8//8 9//9
f 27//27 37//37 33//33 94//94
f 32//32 65//65 18//18 76//76 68//68 71//71 72//72 25//25
f 17//17 79//79 77//77 20//20
f 38//38 29//29 26//26 74//74 86//86 83//83 48//48 41//41
f 16//16 21//21 14//14 1//1 11//11 58//58 62//62 44//44 81//81 85//85 92//92 89//89 80//80
f 12//12 23//23 63//63 31//31 95//95 35//35 96//96 4//4
f 5//5 98//98 39//39 50//50 47//47 56//56 51//51 6//6
f 7//7 53//53 59//59 10//10
f 19//19 64//64 22//22 15//15
f 28//28 93//93 30//30 24//24
f 40//40 97//97 34//34 36//36
f 49//49 82//82 43//43 45//45
f 55//55 60//60 57//57 52//52
f 46//46 42//42 61//61 54//54
f 66//66 75//75 78//78 88//88
f 84//84 73//73 70//70 90//90
f 91//91 69//69 67//67 87//87
