# Rhino

v -50.000450134277344 -1692.27099609375 256.79910278320313
v -50.000450134277344 -1692.27099609375 356.80081176757813
v 50.000091552734375 -1692.27099609375 256.79910278320313
v 50.000091552734375 -1692.27099609375 356.80081176757813
v 50.000091552734375 -1692.27099609375 256.79910278320313
v 50.000091552734375 -1692.27099609375 356.80081176757813
v 50.000091552734375 1734.79541015625 256.79910278320313
v 50.000091552734375 1734.79541015625 356.80081176757813
v 50.000091552734375 1734.79541015625 256.79910278320313
v 50.000091552734375 1734.79541015625 356.80081176757813
v -50.000450134277344 1734.79541015625 256.79910278320313
v -50.000450134277344 1734.79541015625 356.80081176757813
v -50.000450134277344 1734.79541015625 256.79910278320313
v -50.000450134277344 1734.79541015625 356.80081176757813
v -50.000450134277344 -1692.27099609375 256.79910278320313
v -50.000450134277344 -1692.27099609375 356.80081176757813
v -50.000450134277344 -1692.27099609375 256.79910278320313
v 50.000091552734375 -1692.27099609375 256.79910278320313
v -50.000450134277344 1734.79541015625 256.79910278320313
v 50.000091552734375 1734.79541015625 256.79910278320313
v -50.000450134277344 -1692.27099609375 356.80081176757813
v -50.000450134277344 1734.79541015625 356.80081176757813
v 50.000091552734375 -1692.27099609375 356.80081176757813
v 50.000091552734375 1734.79541015625 356.80081176757813
vt 0.51417630910873413 0
vt 0.51417630910873413 0.028352644294500351
vt 0.54252862930297852 0
vt 0.54252862930297852 0.028352644294500351
vt 0.028352644294500351 0.72873407602310181
vt 0.028352644294500351 0.75708675384521484
vt 0.99853515625 0.72873407602310181
vt 0.99853515625 0.75708675384521484
vt 0.028352644294500351 0
vt 0.028352644294500351 0.028352644294500351
vt 0.056704957038164139 0
vt 0.056704957038164139 0.028352644294500351
vt 0.026887800544500351 0
vt 0 0
vt 0.026887800544500351 0.97018253803253174
vt 0 0.97018253803253174
vt 0.028352644294500351 0.48582369089126587
vt 0.028352644294500351 0.51417601108551025
vt 0.99853515625 0.48582369089126587
vt 0.99853515625 0.51417601108551025
vt 0.99853515625 0.24291326105594635
vt 0.028352644294500351 0.24291326105594635
vt 0.99853515625 0.27126556634902954
vt 0.028352644294500351 0.27126556634902954
vn 0 -1 0
vn 0 -1 0
vn 0 -1 0
vn 0 -1 0
vn 1 0 0
vn 1 0 0
vn 1 0 0
vn 1 0 0
vn 0 1 0
vn 0 1 0
vn 0 1 0
vn 0 1 0
vn -1 0 0
vn -1 0 0
vn -1 0 0
vn -1 0 0
vn 0 0 -1
vn 0 0 -1
vn 0 0 -1
vn 0 0 -1
vn 0 0 1
vn 0 0 1
vn 0 0 1
vn 0 0 1
f 2/2/2 1/1/1 3/3/3 4/4/4
f 6/6/6 5/5/5 7/7/7 8/8/8
f 10/10/10 9/9/9 11/11/11 12/12/12
f 14/14/14 13/13/13 15/15/15 16/16/16
f 18/18/18 17/17/17 19/19/19 20/20/20
f 22/22/22 21/21/21 23/23/23 24/24/24
