# Rhino

v 1.797532320022583 -0.12856417894363403 1.7112575769424438
v 1.797532320022583 -0.12856417894363403 1.6942956447601318
v 1.797532320022583 0.12617805600166321 1.7112575769424438
v 1.797532320022583 0.12617805600166321 1.6942956447601318
v 1.797532320022583 0.12617805600166321 1.7112575769424438
v 1.797532320022583 0.12617805600166321 1.6942956447601318
v 2.1109957695007324 0.12617805600166321 1.7112575769424438
v 2.1109957695007324 0.12617805600166321 1.6942956447601318
v 2.1109957695007324 0.12617805600166321 1.7112575769424438
v 2.1109957695007324 0.12617805600166321 1.6942956447601318
v 2.1109957695007324 -0.12856417894363403 1.7112575769424438
v 2.1109957695007324 -0.12856417894363403 1.6942956447601318
v 2.1109957695007324 -0.12856417894363403 1.7112575769424438
v 2.1109957695007324 -0.12856417894363403 1.6942956447601318
v 1.797532320022583 -0.12856417894363403 1.7112575769424438
v 1.797532320022583 -0.12856417894363403 1.6942956447601318
v 1.797532320022583 -0.12856417894363403 1.7112575769424438
v 1.797532320022583 0.12617805600166321 1.7112575769424438
v 2.1109957695007324 0.12617805600166321 1.7112575769424438
v 2.1109957695007324 -0.12856417894363403 1.7112575769424438
v 1.797532320022583 -0.12856417894363403 1.6942956447601318
v 1.797532320022583 0.12617805600166321 1.6942956447601318
v 2.1109957695007324 0.12617805600166321 1.6942956447601318
v 2.1109957695007324 -0.12856417894363403 1.6942956447601318
vt 0 0
vt 0 0.50340336561203003
vt 0.25 0
vt 0.25 0.50340336561203003
vt 0.25 0
vt 0.25 0.50340336561203003
vt 0.5 0
vt 0.5 0.50340336561203003
vt 0.5 0
vt 0.5 0.50340336561203003
vt 0.75 0
vt 0.75 0.50340336561203003
vt 0.75 0
vt 0.75 0.50340336561203003
vt 1 0
vt 1 0.50340336561203003
vt 0 1
vt 0.25 1
vt 0.25 0.50340384244918823
vt 0 0.50340384244918823
vt 0.75 0.50340384244918823
vt 1 0.50340384244918823
vt 1 1
vt 0.75 1
vn -1 0 0
vn -1 0 0
vn -1 0 0
vn -1 0 0
vn 0 1 0
vn 0 1 0
vn 0 1 0
vn 0 1 0
vn 1 0 0
vn 1 0 0
vn 1 0 0
vn 1 0 0
vn 0 -1 0
vn 0 -1 0
vn 0 -1 0
vn 0 -1 0
vn 0 0 1
vn 0 0 1
vn 0 0 1
vn 0 0 1
vn 0 0 -1
vn 0 0 -1
vn 0 0 -1
vn 0 0 -1
f 1/1/1 3/3/3 4/4/4 2/2/2
f 5/5/5 7/7/7 8/8/8 6/6/6
f 9/9/9 11/11/11 12/12/12 10/10/10
f 13/13/13 15/15/15 16/16/16 14/14/14
f 18/18/18 17/17/17 20/20/20 19/19/19
f 24/24/24 21/21/21 22/22/22 23/23/23
