# Rhino

v -26.509668350219727 -64 65.199996948242188
v -26.509668350219727 -64 92.299995422363281
v 26.509668350219727 -64 65.199996948242188
v 26.509668350219727 -64 92.299995422363281
v 26.509668350219727 -64 65.199996948242188
v 26.509668350219727 -64 92.299995422363281
v 18.031223297119141 -18.031223297119141 65.199996948242188
v 18.031223297119141 -18.031223297119141 92.299995422363281
v 18.031223297119141 -18.031223297119141 65.199996948242188
v 18.031223297119141 -18.031223297119141 92.299995422363281
v 0 -25.5 65.199996948242188
v 0 -25.5 92.299995422363281
v 0 -25.5 65.199996948242188
v 0 -25.5 92.299995422363281
v -26.509668350219727 -64 65.199996948242188
v -26.509668350219727 -64 92.299995422363281
v -26.509668350219727 -64 65.199996948242188
v 26.509668350219727 -64 65.199996948242188
v 18.031223297119141 -18.031223297119141 65.199996948242188
v 0 -25.5 65.199996948242188
v -26.509668350219727 -64 92.299995422363281
v 26.509668350219727 -64 92.299995422363281
v 18.031223297119141 -18.031223297119141 92.299995422363281
v 0 -25.5 92.299995422363281
vt 0 0
vt 0 0.61382925510406494
vt 0.31934660673141479 0
vt 0.31934660673141479 0.61382925510406494
vt 0.31934660673141479 0
vt 0.31934660673141479 0.61382925510406494
vt 0.60089623928070068 0
vt 0.60089623928070068 0.61382925510406494
vt 0.60089623928070068 0
vt 0.60089623928070068 0.61382925510406494
vt 0.71845036745071411 0
vt 0.71845036745071411 0.61382925510406494
vt 0.71845036745071411 0
vt 0.71845036745071411 0.61382925510406494
vt 1 0
vt 1 0.61382925510406494
vt 0.31934660673141479 0.6138298511505127
vt 0 0.6138298511505127
vt 0.051067456603050232 1
vt 0.1596733033657074 0.93725699186325073
vt 1 1
vt 0.68065339326858521 1
vt 0.73172086477279663 0.6138298511505127
vt 0.84032672643661499 0.67657285928726196
vn 0 -1 0
vn 0 -1 0
vn 0 -1 0
vn 0 -1 0
vn 0.98341310024261475 0.18137994408607483 0
vn 0.98341310024261475 0.18137994408607483 0
vn 0.98341310024261475 0.18137994408607483 0
vn 0.98341310024261475 0.18137994408607483 0
vn -0.3826833963394165 0.92387956380844116 0
vn -0.3826833963394165 0.92387956380844116 0
vn -0.3826833963394165 0.92387956380844116 0
vn -0.3826833963394165 0.92387956380844116 0
vn -0.82363307476043701 0.56712311506271362 0
vn -0.82363307476043701 0.56712311506271362 0
vn -0.82363307476043701 0.56712311506271362 0
vn -0.82363307476043701 0.56712311506271362 0
vn 0 0 -1
vn 0 0 -1
vn 0 0 -1
vn 0 0 -1
vn 0 0 1
vn 0 0 1
vn 0 0 1
vn 0 0 1
f 20/20/20 19/19/19 18/18/18 17/17/17
f 22/22/22 23/23/23 24/24/24 21/21/21
f 1/1/1 3/3/3 4/4/4 2/2/2
f 5/5/5 7/7/7 8/8/8 6/6/6
f 9/9/9 11/11/11 12/12/12 10/10/10
f 13/13/13 15/15/15 16/16/16 14/14/14
