# Rhino

v 13761.845703125 1659.8406982421875 2514.826416015625
v 13761.5927734375 1659.690185546875 -172.32760620117188
v 15560.2236328125 1659.56787109375 -172.49668884277344
v 15560.4765625 1659.7183837890625 2514.6572265625
v 15560.2236328125 1659.56787109375 -172.49668884277344
v 15560.3603515625 3674.56787109375 -172.60952758789063
v 15560.61328125 3674.71826171875 2514.54443359375
v 15560.3603515625 3674.56787109375 -172.60952758789063
v 13761.982421875 3674.840576171875 2514.713623046875
v 13761.982421875 3674.840576171875 2514.713623046875
v 13761.7294921875 3674.690185546875 -172.44046020507813
v 13761.845703125 1659.8406982421875 2514.826416015625
v 15560.2236328125 1659.56787109375 -172.49668884277344
v 13761.5927734375 1659.690185546875 -172.32760620117188
v 15560.3603515625 3674.56787109375 -172.60952758789063
v 13761.982421875 3674.840576171875 2514.713623046875
v 13761.845703125 1659.8406982421875 2514.826416015625
v 15560.61328125 3674.71826171875 2514.54443359375
v 15560.4765625 1659.7183837890625 2514.6572265625
v 15560.61328125 3674.71826171875 2514.54443359375
v 13761.7294921875 3674.690185546875 -172.44046020507813
v 13761.5927734375 1659.690185546875 -172.32760620117188
v 13761.7294921875 3674.690185546875 -172.44046020507813
v 15560.4765625 1659.7183837890625 2514.6572265625
vt 0 0.44306021928787231
vt 0 0
vt 0.29754027724266052 0
vt 0 0.88758528232574463
vt 0 0.44452506303787231
vt 0.3318684995174408 0.44452506303787231
vt 0.3333333432674408 0.44306021928787231
vt 0.3333333432674408 0
vt 0.63087362051010132 0.44306021928787231
vt 0.3333333432674408 0.88758528232574463
vt 0.3333333432674408 0.44452506303787231
vt 0.66520184278488159 0.88758528232574463
vt 0.66666668653488159 0.29754027724266052
vt 0.66666668653488159 0
vt 0.99853515625 0.29754027724266052
vt 0.66666668653488159 0.44452506303787231
vt 0.99853515625 0.44452506303787231
vt 0.66666668653488159 0.74206537008285522
vt 0.29754027724266052 0.44306021928787231
vt 0.3318684995174408 0.88758528232574463
vt 0.63087362051010132 0
vt 0.66520184278488159 0.44452506303787231
vt 0.99853515625 0
vt 0.99853515625 0.74206537008285522
vn -6.7997367295902222E-05 -1 5.600319491350092E-05
vn -6.7997367295902222E-05 -1 5.600319491350092E-05
vn -6.7997367295902222E-05 -1 5.600319491350092E-05
vn 1 -6.8002635089214891E-05 -9.3998096417635679E-05
vn 1 -6.8002635089214891E-05 -9.3998096417635679E-05
vn 1 -6.8002635089214891E-05 -9.3998096417635679E-05
vn 6.7997367295902222E-05 1 -5.600319491350092E-05
vn 6.7997367295902222E-05 1 -5.600319491350092E-05
vn 6.7997367295902222E-05 1 -5.600319491350092E-05
vn -1 6.8002635089214891E-05 9.3998096417635679E-05
vn -1 6.8002635089214891E-05 9.3998096417635679E-05
vn -1 6.8002635089214891E-05 9.3998096417635679E-05
vn -9.4001901743467897E-05 -5.599680298473686E-05 -1
vn -9.4001901743467897E-05 -5.599680298473686E-05 -1
vn -9.4001901743467897E-05 -5.599680298473686E-05 -1
vn 9.4001901743467897E-05 5.599680298473686E-05 1
vn 9.4001901743467897E-05 5.599680298473686E-05 1
vn 9.4001901743467897E-05 5.599680298473686E-05 1
vn -6.7997367295902222E-05 -1 5.600319491350092E-05
vn 1 -6.8002635089214891E-05 -9.3998096417635679E-05
vn 6.7997367295902222E-05 1 -5.600319491350092E-05
vn -1 6.8002635089214891E-05 9.3998096417635679E-05
vn -9.4001901743467897E-05 -5.599680298473686E-05 -1
vn 9.4001901743467897E-05 5.599680298473686E-05 1
f 3/3/3 19/19/19 1/1/1 2/2/2
f 6/6/6 20/20/20 4/4/4 5/5/5
f 8/8/8 21/21/21 9/9/9 7/7/7
f 11/11/11 22/22/22 12/12/12 10/10/10
f 14/14/14 23/23/23 15/15/15 13/13/13
f 17/17/17 24/24/24 18/18/18 16/16/16
