# Rhino

v 14265.591796875 9258.865234375 2488.826416015625
v 14265.341796875 9258.7158203125 -172.80049133300781
v 16063.97265625 9258.59375 -172.96955871582031
v 16064.2236328125 9258.7421875 2488.657470703125
v 16063.97265625 9258.59375 -172.96955871582031
v 16064.3603515625 11273.7421875 2488.544677734375
v 16064.3603515625 11273.7421875 2488.544677734375
v 16064.1103515625 11273.59375 -173.0823974609375
v 14265.4794921875 11273.7158203125 -172.913330078125
v 14265.7294921875 11273.865234375 2488.713623046875
v 14265.4794921875 11273.7158203125 -172.913330078125
v 14265.591796875 9258.865234375 2488.826416015625
v 16063.97265625 9258.59375 -172.96955871582031
v 14265.341796875 9258.7158203125 -172.80049133300781
v 14265.4794921875 11273.7158203125 -172.913330078125
v 14265.7294921875 11273.865234375 2488.713623046875
v 14265.591796875 9258.865234375 2488.826416015625
v 16064.3603515625 11273.7421875 2488.544677734375
v 16064.2236328125 9258.7421875 2488.657470703125
v 16064.1103515625 11273.59375 -173.0823974609375
v 14265.7294921875 11273.865234375 2488.713623046875
v 14265.341796875 9258.7158203125 -172.80049133300781
v 16064.1103515625 11273.59375 -173.0823974609375
v 16064.2236328125 9258.7421875 2488.657470703125
vt 0.3333333432674408 0.43883737921714783
vt 0.3333333432674408 0
vt 0.63087362051010132 0
vt 0.3333333432674408 0.87913960218429565
vt 0.3333333432674408 0.44030222296714783
vt 0.66520184278488159 0.87913960218429565
vt 0 0.43883737921714783
vt 0 0
vt 0.29754027724266052 0
vt 0 0.87913960218429565
vt 0 0.44030222296714783
vt 0.3318684995174408 0.87913960218429565
vt 0.66666668653488159 0.73784250020980835
vt 0.66666668653488159 0.44030222296714783
vt 0.99853515625 0.44030222296714783
vt 0.66666668653488159 0
vt 0.99853515625 0
vt 0.66666668653488159 0.29754027724266052
vt 0.63087362051010132 0.43883737921714783
vt 0.66520184278488159 0.44030222296714783
vt 0.29754027724266052 0.43883737921714783
vt 0.3318684995174408 0.44030222296714783
vt 0.99853515625 0.73784250020980835
vt 0.99853515625 0.29754027724266052
vn -6.7997367295902222E-05 -1 5.600319491350092E-05
vn -6.7997367295902222E-05 -1 5.600319491350092E-05
vn -6.7997367295902222E-05 -1 5.600319491350092E-05
vn 1 -6.8002635089214891E-05 -9.3998096417635679E-05
vn 1 -6.8002635089214891E-05 -9.3998096417635679E-05
vn 1 -6.8002635089214891E-05 -9.3998096417635679E-05
vn 6.7997367295902222E-05 1 -5.600319491350092E-05
vn 6.7997367295902222E-05 1 -5.600319491350092E-05
vn 6.7997367295902222E-05 1 -5.600319491350092E-05
vn -1 6.8002635089214891E-05 9.3998096417635679E-05
vn -1 6.8002635089214891E-05 9.3998096417635679E-05
vn -1 6.8002635089214891E-05 9.3998096417635679E-05
vn -9.4001901743467897E-05 -5.599680298473686E-05 -1
vn -9.4001901743467897E-05 -5.599680298473686E-05 -1
vn -9.4001901743467897E-05 -5.599680298473686E-05 -1
vn 9.4001901743467897E-05 5.599680298473686E-05 1
vn 9.4001901743467897E-05 5.599680298473686E-05 1
vn 9.4001901743467897E-05 5.599680298473686E-05 1
vn -6.7997367295902222E-05 -1 5.600319491350092E-05
vn 1 -6.8002635089214891E-05 -9.3998096417635679E-05
vn 6.7997367295902222E-05 1 -5.600319491350092E-05
vn -1 6.8002635089214891E-05 9.3998096417635679E-05
vn -9.4001901743467897E-05 -5.599680298473686E-05 -1
vn 9.4001901743467897E-05 5.599680298473686E-05 1
f 3/3/3 19/19/19 1/1/1 2/2/2
f 5/5/5 20/20/20 6/6/6 4/4/4
f 9/9/9 21/21/21 7/7/7 8/8/8
f 11/11/11 22/22/22 12/12/12 10/10/10
f 15/15/15 23/23/23 13/13/13 14/14/14
f 17/17/17 24/24/24 18/18/18 16/16/16
