# Rhino

v 25342.974609375 12727.3134765625 -88.746994018554688
v 25342.974609375 12727.3134765625 311.25299072265625
v 28486.482421875 16019.4521484375 -88.746994018554688
v 28486.482421875 16019.4521484375 311.25299072265625
v 28486.482421875 16019.4521484375 -88.746994018554688
v 28486.482421875 16019.4521484375 311.25299072265625
v 13486.482421875 16020.47265625 -88.746994018554688
v 13486.482421875 16020.47265625 311.25299072265625
v 13486.482421875 16020.47265625 -88.746994018554688
v 13486.482421875 16020.47265625 311.25299072265625
v 22442.01953125 12727.50390625 -88.746994018554688
v 22442.01953125 12727.50390625 311.25299072265625
v 22442.01953125 12727.50390625 -88.746994018554688
v 22442.01953125 12727.50390625 311.25299072265625
v 25342.974609375 12727.3134765625 -88.746994018554688
v 25342.974609375 12727.3134765625 311.25299072265625
v 25342.974609375 12727.3134765625 -88.746994018554688
v 28486.482421875 16019.4521484375 -88.746994018554688
v 13486.482421875 16020.47265625 -88.746994018554688
v 22442.01953125 12727.50390625 -88.746994018554688
v 25342.974609375 12727.3134765625 311.25299072265625
v 28486.482421875 16019.4521484375 311.25299072265625
v 13486.482421875 16020.47265625 311.25299072265625
v 22442.01953125 12727.50390625 311.25299072265625
vt 0 0
vt 0 0.52862709760665894
vt 0.14229790866374969 0
vt 0.14229790866374969 0.52862709760665894
vt 0.14229790866374969 0
vt 0.14229790866374969 0.52862709760665894
vt 0.61121582984924316 0
vt 0.61121582984924316 0.52862709760665894
vt 0.61121582984924316 0
vt 0.61121582984924316 0.52862709760665894
vt 0.91243880987167358 0
vt 0.91243880987167358 0.52862709760665894
vt 0.91243880987167358 0
vt 0.91243880987167358 0.52862709760665894
vt 1 0
vt 1 0.52862709760665894
vt 0.098269805312156677 0.52862763404846191
vt 0 0.99985390901565552
vt 0.46891790628433228 1
vt 0.18583101034164429 0.52865487337112427
vt 0.6293519139289856 1
vt 0.53108209371566772 0.5287737250328064
vt 1 0.52862763404846191
vt 0.71691310405731201 0.99997276067733765
vn 0.72324448823928833 -0.69059205055236816 0
vn 0.72324448823928833 -0.69059205055236816 0
vn 0.72324448823928833 -0.69059205055236816 0
vn 0.72324448823928833 -0.69059205055236816 0
vn 6.8033856223337352E-05 1 0
vn 6.8033856223337352E-05 1 0
vn 6.8033856223337352E-05 1 0
vn 6.8033856223337352E-05 1 0
vn -0.34511104226112366 -0.93856185674667358 0
vn -0.34511104226112366 -0.93856185674667358 0
vn -0.34511104226112366 -0.93856185674667358 0
vn -0.34511104226112366 -0.93856185674667358 0
vn -6.5643791458569467E-05 -1 0
vn -6.5643791458569467E-05 -1 0
vn -6.5643791458569467E-05 -1 0
vn -6.5643791458569467E-05 -1 0
vn 0 0 -1
vn 0 0 -1
vn 0 0 -1
vn 0 0 -1
vn 0 0 1
vn 0 0 1
vn 0 0 1
vn 0 0 1
f 18/18/18 17/17/17 20/20/20 19/19/19
f 24/24/24 21/21/21 22/22/22 23/23/23
f 1/1/1 3/3/3 4/4/4 2/2/2
f 5/5/5 7/7/7 8/8/8 6/6/6
f 9/9/9 11/11/11 12/12/12 10/10/10
f 13/13/13 15/15/15 16/16/16 14/14/14
