# Rhino

v 22441.9765625 11912.0166015625 -88.74700927734375
v 22441.9765625 11912.0166015625 311.25299072265625
v 13485.2666015625 -1859.527587890625 -88.74700927734375
v 13485.2666015625 -1859.527587890625 311.25299072265625
v 13485.2666015625 -1859.527587890625 -88.74700927734375
v 13485.2666015625 -1859.527587890625 311.25299072265625
v 23991.80859375 9776.0556640625 -88.74700927734375
v 23991.80859375 9776.0556640625 311.25299072265625
v 23991.80859375 9776.0556640625 -88.74700927734375
v 23991.80859375 9776.0556640625 311.25299072265625
v 22441.9765625 11912.0166015625 -88.74700927734375
v 22441.9765625 11912.0166015625 311.25299072265625
v 22441.9765625 11912.0166015625 -88.74700927734375
v 13485.2666015625 -1859.527587890625 -88.74700927734375
v 23991.80859375 9776.0556640625 -88.74700927734375
v 22441.9765625 11912.0166015625 311.25299072265625
v 13485.2666015625 -1859.527587890625 311.25299072265625
v 23991.80859375 9776.0556640625 311.25299072265625
vt 0 0
vt 0 0.54222100973129272
vt 0.47472026944160461 0
vt 0.47472026944160461 0.54222100973129272
vt 0.47472026944160461 0
vt 0.47472026944160461 0.54222100973129272
vt 0.93472731113433838 0
vt 0.93472731113433838 0.54222100973129272
vt 0.93472731113433838 0
vt 0.93472731113433838 0.54222100973129272
vt 1 0
vt 1 0.54222100973129272
vt 0 1
vt 0.47472026944160461 1
vt 0.018972637131810188 0.5422215461730957
vt 0 0.5422215461730957
vt 0.47472026944160461 0.5422215461730957
vt 0.018972637131810188 1
vn -0.83829879760742188 0.54521113634109497 0
vn -0.83829879760742188 0.54521113634109497 0
vn -0.83829879760742188 0.54521113634109497 0
vn -0.83829879760742188 0.54521113634109497 0
vn 0.74219834804534912 -0.67018026113510132 0
vn 0.74219834804534912 -0.67018026113510132 0
vn 0.74219834804534912 -0.67018026113510132 0
vn 0.74219834804534912 -0.67018026113510132 0
vn 0.80938345193862915 0.58728057146072388 0
vn 0.80938345193862915 0.58728057146072388 0
vn 0.80938345193862915 0.58728057146072388 0
vn 0.80938345193862915 0.58728057146072388 0
vn 0 0 -1
vn 0 0 -1
vn 0 0 -1
vn 0 0 1
vn 0 0 1
vn 0 0 1
f 1/1/1 3/3/3 4/4/4 2/2/2
f 5/5/5 7/7/7 8/8/8 6/6/6
f 9/9/9 11/11/11 12/12/12 10/10/10
f 15/15/15 14/14/14 13/13/13
f 18/18/18 16/16/16 17/17/17
