# Rhino

v 17762.3203125 9081.341796875 1338.69482421875
v 17762.162109375 9081.2470703125 -352.7088623046875
v 20219.138671875 9081.1748046875 1338.4638671875
v 20219.138671875 9081.1748046875 1338.4638671875
v 20218.98046875 9081.080078125 -352.93978881835938
v 20219.044921875 10051.08203125 -352.99411010742188
v 20219.205078125 10051.1767578125 1338.4095458984375
v 20219.044921875 10051.08203125 -352.99411010742188
v 17762.38671875 10051.34375 1338.6405029296875
v 17762.38671875 10051.34375 1338.6405029296875
v 17762.2265625 10051.2490234375 -352.76318359375
v 17762.3203125 9081.341796875 1338.69482421875
v 20218.98046875 9081.080078125 -352.93978881835938
v 17762.162109375 9081.2470703125 -352.7088623046875
v 20219.044921875 10051.08203125 -352.99411010742188
v 17762.38671875 10051.34375 1338.6405029296875
v 17762.3203125 9081.341796875 1338.69482421875
v 20219.138671875 9081.1748046875 1338.4638671875
v 20218.98046875 9081.080078125 -352.93978881835938
v 20219.205078125 10051.1767578125 1338.4095458984375
v 17762.2265625 10051.2490234375 -352.76318359375
v 17762.162109375 9081.2470703125 -352.7088623046875
v 17762.2265625 10051.2490234375 -352.76318359375
v 20219.205078125 10051.1767578125 1338.4095458984375
vt 0.66666668653488159 0
vt 0.99853515625 0
vt 0.66666668653488159 0.48417744040489197
vt 0 0.38232621550559998
vt 0.3318684995174408 0.38232621550559998
vt 0.3318684995174408 0.57348930835723877
vt 0.3333333432674408 0.38232621550559998
vt 0.66520184278488159 0.38232621550559998
vt 0.3333333432674408 0.86503881216049194
vt 0 0.62441492080688477
vt 0.3318684995174408 0.62441492080688477
vt 0 0.81557804346084595
vt 0 0.19116310775279999
vt 0.48417744040489197 0.19116310775279999
vt 0 0.38086137175559998
vt 0 0.18969826400279999
vt 0 0
vt 0.48417744040489197 0
vt 0.99853515625 0.48417744040489197
vt 0 0.57348930835723877
vt 0.66520184278488159 0.86503881216049194
vt 0.3318684995174408 0.81557804346084595
vt 0.48417744040489197 0.38086137175559998
vt 0.48417744040489197 0.18969826400279999
vn -6.7997367295902222E-05 -1 5.600319491350092E-05
vn -6.7997367295902222E-05 -1 5.600319491350092E-05
vn -6.7997367295902222E-05 -1 5.600319491350092E-05
vn 1 -6.8002635089214891E-05 -9.3998096417635679E-05
vn 1 -6.8002635089214891E-05 -9.3998096417635679E-05
vn 1 -6.8002635089214891E-05 -9.3998096417635679E-05
vn 6.7997367295902222E-05 1 -5.600319491350092E-05
vn 6.7997367295902222E-05 1 -5.600319491350092E-05
vn 6.7997367295902222E-05 1 -5.600319491350092E-05
vn -1 6.8002635089214891E-05 9.3998096417635679E-05
vn -1 6.8002635089214891E-05 9.3998096417635679E-05
vn -1 6.8002635089214891E-05 9.3998096417635679E-05
vn -9.4001901743467897E-05 -5.599680298473686E-05 -1
vn -9.4001901743467897E-05 -5.599680298473686E-05 -1
vn -9.4001901743467897E-05 -5.599680298473686E-05 -1
vn 9.4001901743467897E-05 5.599680298473686E-05 1
vn 9.4001901743467897E-05 5.599680298473686E-05 1
vn 9.4001901743467897E-05 5.599680298473686E-05 1
vn -6.7997367295902222E-05 -1 5.600319491350092E-05
vn 1 -6.8002635089214891E-05 -9.3998096417635679E-05
vn 6.7997367295902222E-05 1 -5.600319491350092E-05
vn -1 6.8002635089214891E-05 9.3998096417635679E-05
vn -9.4001901743467897E-05 -5.599680298473686E-05 -1
vn 9.4001901743467897E-05 5.599680298473686E-05 1
f 2/2/2 19/19/19 3/3/3 1/1/1
f 6/6/6 20/20/20 4/4/4 5/5/5
f 8/8/8 21/21/21 9/9/9 7/7/7
f 11/11/11 22/22/22 12/12/12 10/10/10
f 14/14/14 23/23/23 15/15/15 13/13/13
f 18/18/18 24/24/24 16/16/16 17/17/17
