# Rhino

v 18102.5546875 11685.76171875 2559.29296875
v 18102.298828125 11685.6083984375 -173.29707336425781
v 20117.5546875 11685.6240234375 2559.103515625
v 20117.5546875 11685.6240234375 2559.103515625
v 20117.298828125 11685.4716796875 -173.48648071289063
v 20117.677734375 13484.2548828125 2559.002685546875
v 20117.677734375 13484.2548828125 2559.002685546875
v 20117.421875 13484.1025390625 -173.58720397949219
v 18102.421875 13484.2392578125 -173.39779663085938
v 18102.677734375 13484.392578125 2559.192138671875
v 18102.421875 13484.2392578125 -173.39779663085938
v 18102.5546875 11685.76171875 2559.29296875
v 20117.298828125 11685.4716796875 -173.48648071289063
v 18102.298828125 11685.6083984375 -173.29707336425781
v 18102.421875 13484.2392578125 -173.39779663085938
v 18102.677734375 13484.392578125 2559.192138671875
v 18102.5546875 11685.76171875 2559.29296875
v 20117.5546875 11685.6240234375 2559.103515625
v 20117.298828125 11685.4716796875 -173.48648071289063
v 20117.421875 13484.1025390625 -173.58720397949219
v 18102.677734375 13484.392578125 2559.192138671875
v 18102.298828125 11685.6083984375 -173.29707336425781
v 20117.421875 13484.1025390625 -173.58720397949219
v 20117.677734375 13484.2548828125 2559.002685546875
vt 0.3333333432674408 0.90261787176132202
vt 0.3333333432674408 0.45204135775566101
vt 0.66520184278488159 0.90261787176132202
vt 0.3333333432674408 0.45057651400566101
vt 0.3333333432674408 0
vt 0.63087362051010132 0.45057651400566101
vt 0 0.90261787176132202
vt 0 0.45204135775566101
vt 0.3318684995174408 0.45204135775566101
vt 0 0.45057651400566101
vt 0 0
vt 0.29754027724266052 0.45057651400566101
vt 0.66666668653488159 0.45204135775566101
vt 0.99853515625 0.45204135775566101
vt 0.99853515625 0.74958163499832153
vt 0.66666668653488159 0.29754027724266052
vt 0.66666668653488159 0
vt 0.99853515625 0
vt 0.66520184278488159 0.45204135775566101
vt 0.63087362051010132 0
vt 0.3318684995174408 0.90261787176132202
vt 0.29754027724266052 0
vt 0.66666668653488159 0.74958163499832153
vt 0.99853515625 0.29754027724266052
vn -6.7997367295902222E-05 -1 5.600319491350092E-05
vn -6.7997367295902222E-05 -1 5.600319491350092E-05
vn -6.7997367295902222E-05 -1 5.600319491350092E-05
vn 1 -6.8002635089214891E-05 -9.3998096417635679E-05
vn 1 -6.8002635089214891E-05 -9.3998096417635679E-05
vn 1 -6.8002635089214891E-05 -9.3998096417635679E-05
vn 6.7997367295902222E-05 1 -5.600319491350092E-05
vn 6.7997367295902222E-05 1 -5.600319491350092E-05
vn 6.7997367295902222E-05 1 -5.600319491350092E-05
vn -1 6.8002635089214891E-05 9.3998096417635679E-05
vn -1 6.8002635089214891E-05 9.3998096417635679E-05
vn -1 6.8002635089214891E-05 9.3998096417635679E-05
vn -9.4001901743467897E-05 -5.599680298473686E-05 -1
vn -9.4001901743467897E-05 -5.599680298473686E-05 -1
vn -9.4001901743467897E-05 -5.599680298473686E-05 -1
vn 9.4001901743467897E-05 5.599680298473686E-05 1
vn 9.4001901743467897E-05 5.599680298473686E-05 1
vn 9.4001901743467897E-05 5.599680298473686E-05 1
vn -6.7997367295902222E-05 -1 5.600319491350092E-05
vn 1 -6.8002635089214891E-05 -9.3998096417635679E-05
vn 6.7997367295902222E-05 1 -5.600319491350092E-05
vn -1 6.8002635089214891E-05 9.3998096417635679E-05
vn -9.4001901743467897E-05 -5.599680298473686E-05 -1
vn 9.4001901743467897E-05 5.599680298473686E-05 1
f 2/2/2 19/19/19 3/3/3 1/1/1
f 5/5/5 20/20/20 6/6/6 4/4/4
f 9/9/9 21/21/21 7/7/7 8/8/8
f 11/11/11 22/22/22 12/12/12 10/10/10
f 15/15/15 23/23/23 13/13/13 14/14/14
f 18/18/18 24/24/24 16/16/16 17/17/17
