# Rhino

v 27432.708984375 9649.9873046875 1375.9398193359375
v 27432.5625 9649.900390625 -174.06013488769531
v 28562.5625 9649.8232421875 -174.16635131835938
v 28562.708984375 9649.91015625 1375.8336181640625
v 28562.5625 9649.8232421875 -174.16635131835938
v 28562.80859375 13264.34375 -174.3687744140625
v 28562.955078125 13264.4306640625 1375.6312255859375
v 28562.80859375 13264.34375 -174.3687744140625
v 27432.955078125 13264.5068359375 1375.7374267578125
v 27432.955078125 13264.5068359375 1375.7374267578125
v 27432.80859375 13264.4208984375 -174.26255798339844
v 27432.5625 9649.900390625 -174.06013488769531
v 28562.5625 9649.8232421875 -174.16635131835938
v 27432.5625 9649.900390625 -174.06013488769531
v 28562.80859375 13264.34375 -174.3687744140625
v 27432.955078125 13264.5068359375 1375.7374267578125
v 27432.708984375 9649.9873046875 1375.9398193359375
v 28562.708984375 9649.91015625 1375.8336181640625
v 28562.708984375 9649.91015625 1375.8336181640625
v 28562.955078125 13264.4306640625 1375.6312255859375
v 27432.80859375 13264.4208984375 -174.26255798339844
v 27432.708984375 9649.9873046875 1375.9398193359375
v 27432.80859375 13264.4208984375 -174.26255798339844
v 28562.955078125 13264.4306640625 1375.6312255859375
vt 0.35541045665740967 0.28771427273750305
vt 0.35541045665740967 0
vt 0.566231369972229 0
vt 0.71082091331481934 0
vt 0.99853515625 0
vt 0.99853515625 0.67435073852539063
vt 0 0.28771427273750305
vt 0 0
vt 0.21082089841365814 0.28771427273750305
vt 0.42164179682731628 0.28917911648750305
vt 0.70935606956481934 0.28917911648750305
vt 0.70935606956481934 0.96206498146057129
vt 0.21082089841365814 0.28917911648750305
vt 0.42017695307731628 0.28917911648750305
vt 0.21082089841365814 0.96206498146057129
vt 0 0.96206498146057129
vt 0 0.28917911648750305
vt 0.20935605466365814 0.28917911648750305
vt 0.566231369972229 0.28771427273750305
vt 0.71082091331481934 0.67435073852539063
vt 0.21082089841365814 0
vt 0.42164179682731628 0.96206498146057129
vt 0.42017695307731628 0.96206498146057129
vt 0.20935605466365814 0.96206498146057129
vn -6.7997367295902222E-05 -1 5.600319491350092E-05
vn -6.7997367295902222E-05 -1 5.600319491350092E-05
vn -6.7997367295902222E-05 -1 5.600319491350092E-05
vn 1 -6.8002635089214891E-05 -9.3998096417635679E-05
vn 1 -6.8002635089214891E-05 -9.3998096417635679E-05
vn 1 -6.8002635089214891E-05 -9.3998096417635679E-05
vn 6.7997367295902222E-05 1 -5.600319491350092E-05
vn 6.7997367295902222E-05 1 -5.600319491350092E-05
vn 6.7997367295902222E-05 1 -5.600319491350092E-05
vn -1 6.8002635089214891E-05 9.3998096417635679E-05
vn -1 6.8002635089214891E-05 9.3998096417635679E-05
vn -1 6.8002635089214891E-05 9.3998096417635679E-05
vn -9.4001901743467897E-05 -5.599680298473686E-05 -1
vn -9.4001901743467897E-05 -5.599680298473686E-05 -1
vn -9.4001901743467897E-05 -5.599680298473686E-05 -1
vn 9.4001901743467897E-05 5.599680298473686E-05 1
vn 9.4001901743467897E-05 5.599680298473686E-05 1
vn 9.4001901743467897E-05 5.599680298473686E-05 1
vn -6.7997367295902222E-05 -1 5.600319491350092E-05
vn 1 -6.8002635089214891E-05 -9.3998096417635679E-05
vn 6.7997367295902222E-05 1 -5.600319491350092E-05
vn -1 6.8002635089214891E-05 9.3998096417635679E-05
vn -9.4001901743467897E-05 -5.599680298473686E-05 -1
vn 9.4001901743467897E-05 5.599680298473686E-05 1
f 3/3/3 19/19/19 1/1/1 2/2/2
f 6/6/6 20/20/20 4/4/4 5/5/5
f 8/8/8 21/21/21 9/9/9 7/7/7
f 12/12/12 22/22/22 10/10/10 11/11/11
f 14/14/14 23/23/23 15/15/15 13/13/13
f 18/18/18 24/24/24 16/16/16 17/17/17
