# Rhino

v 23608.384765625 1769.1788330078125 758.73736572265625
v 23608.31640625 1769.1378173828125 26.737356185913086
v 25691.0390625 1769.0372314453125 758.5418701171875
v 25691.0390625 1769.0372314453125 758.5418701171875
v 25690.970703125 1768.9962158203125 26.541826248168945
v 25691.33203125 6069.037109375 758.30096435546875
v 25691.33203125 6069.037109375 758.30096435546875
v 25691.263671875 6068.99658203125 26.300905227661133
v 23608.611328125 6069.13818359375 26.496435165405273
v 23608.677734375 6069.1787109375 758.49652099609375
v 23608.611328125 6069.13818359375 26.496435165405273
v 23608.31640625 1769.1378173828125 26.737356185913086
v 25690.970703125 1768.9962158203125 26.541826248168945
v 23608.31640625 1769.1378173828125 26.737356185913086
v 23608.611328125 6069.13818359375 26.496435165405273
v 23608.677734375 6069.1787109375 758.49652099609375
v 23608.384765625 1769.1788330078125 758.73736572265625
v 25691.0390625 1769.0372314453125 758.5418701171875
v 25690.970703125 1768.9962158203125 26.541826248168945
v 25691.263671875 6068.99658203125 26.300905227661133
v 23608.677734375 6069.1787109375 758.49652099609375
v 23608.384765625 1769.1788330078125 758.73736572265625
v 25691.263671875 6068.99658203125 26.300905227661133
v 25691.33203125 6069.037109375 758.30096435546875
vt 0.21929824352264404 0
vt 0.43713164329528809 0
vt 0.21929824352264404 0.24414919316768646
vt 0.21929824352264404 0.24561403691768646
vt 0.43713164329528809 0.24561403691768646
vt 0.21929824352264404 0.99853515625
vt 0 0
vt 0.21783339977264404 0
vt 0.21783339977264404 0.24414919316768646
vt 0 0.24561403691768646
vt 0.21783339977264404 0.24561403691768646
vt 0.21783339977264404 0.99853515625
vt 0.68421053886413574 0
vt 0.9283597469329834 0
vt 0.9283597469329834 0.75438594818115234
vt 0.43859648704528809 0.75438594818115234
vt 0.43859648704528809 0
vt 0.68274569511413574 0
vt 0.43713164329528809 0.24414919316768646
vt 0.43713164329528809 0.99853515625
vt 0 0.24414919316768646
vt 0 0.99853515625
vt 0.68421053886413574 0.75438594818115234
vt 0.68274569511413574 0.75438594818115234
vn -6.7999986640643328E-05 -1 5.5962242186069489E-05
vn -6.7999986640643328E-05 -1 5.5962242186069489E-05
vn -6.7999986640643328E-05 -1 5.5962242186069489E-05
vn 1 -6.7998764279764146E-05 -9.4328977866098285E-05
vn 1 -6.7998764279764146E-05 -9.4328977866098285E-05
vn 1 -6.7998764279764146E-05 -9.4328977866098285E-05
vn 6.7999986640643328E-05 1 -5.5962242186069489E-05
vn 6.7999986640643328E-05 1 -5.5962242186069489E-05
vn 6.7999986640643328E-05 1 -5.5962242186069489E-05
vn -1 6.7998764279764146E-05 9.4328977866098285E-05
vn -1 6.7998764279764146E-05 9.4328977866098285E-05
vn -1 6.7998764279764146E-05 9.4328977866098285E-05
vn -9.3887567345518619E-05 -5.602079545496963E-05 -1
vn -9.3887567345518619E-05 -5.602079545496963E-05 -1
vn -9.3887567345518619E-05 -5.602079545496963E-05 -1
vn 9.3887567345518619E-05 5.602079545496963E-05 1
vn 9.3887567345518619E-05 5.602079545496963E-05 1
vn 9.3887567345518619E-05 5.602079545496963E-05 1
vn -6.7999986640643328E-05 -1 5.5962242186069489E-05
vn 1 -6.7998764279764146E-05 -9.4328977866098285E-05
vn 6.7999986640643328E-05 1 -5.5962242186069489E-05
vn -1 6.7998764279764146E-05 9.4328977866098285E-05
vn -9.3887567345518619E-05 -5.602079545496963E-05 -1
vn 9.3887567345518619E-05 5.602079545496963E-05 1
f 2/2/2 19/19/19 3/3/3 1/1/1
f 5/5/5 20/20/20 6/6/6 4/4/4
f 9/9/9 21/21/21 7/7/7 8/8/8
f 12/12/12 22/22/22 10/10/10 11/11/11
f 15/15/15 23/23/23 13/13/13 14/14/14
f 18/18/18 24/24/24 16/16/16 17/17/17
