# Rhino

v 28485.265625 -1860.5477294921875 -72.679412841796875
v 28485.265625 -1860.5477294921875 327.32058715820313
v 28486.482421875 16019.4521484375 -72.679412841796875
v 28486.482421875 16019.4521484375 327.32058715820313
v 28486.482421875 16019.4521484375 -72.679412841796875
v 28486.482421875 16019.4521484375 327.32058715820313
v 25342.974609375 12727.3134765625 -72.679412841796875
v 25342.974609375 12727.3134765625 327.32058715820313
v 25342.974609375 12727.3134765625 -72.679412841796875
v 25342.974609375 12727.3134765625 327.32058715820313
v 25342.65234375 7799.5849609375 -72.679412841796875
v 25342.65234375 7799.5849609375 327.32058715820313
v 25342.65234375 7799.5849609375 -72.679412841796875
v 25342.65234375 7799.5849609375 327.32058715820313
v 28485.265625 -1860.5477294921875 -72.679412841796875
v 28485.265625 -1860.5477294921875 327.32058715820313
v 28485.265625 -1860.5477294921875 -72.679412841796875
v 28486.482421875 16019.4521484375 -72.679412841796875
v 25342.974609375 12727.3134765625 -72.679412841796875
v 25342.65234375 7799.5849609375 -72.679412841796875
v 28485.265625 -1860.5477294921875 327.32058715820313
v 28486.482421875 16019.4521484375 327.32058715820313
v 25342.974609375 12727.3134765625 327.32058715820313
v 25342.65234375 7799.5849609375 327.32058715820313
vt 0 0
vt 0 0.52990555763244629
vt 0.47657015919685364 0
vt 0.47657015919685364 0.52990555763244629
vt 0.47657015919685364 0
vt 0.47657015919685364 0.52990555763244629
vt 0.59789574146270752 0
vt 0.59789574146270752 0.52990555763244629
vt 0.59789574146270752 0
vt 0.59789574146270752 0.52990555763244629
vt 0.72923845052719116 0
vt 0.72923845052719116 0.52990555763244629
vt 0.72923845052719116 0
vt 0.72923845052719116 0.52990555763244629
vt 1 0
vt 1 0.52990555763244629
vt 0 0.99981802701950073
vt 0.47657015919685364 1
vt 0.38882210850715637 0.52995425462722778
vt 0.25747936964035034 0.52990609407424927
vt 0.52342981100082397 0.53008800745010376
vt 1 0.52990609407424927
vt 0.91225194931030273 0.99995183944702148
vt 0.78090918064117432 1
vn 1 -6.8053515860810876E-05 0
vn 1 -6.8053515860810876E-05 0
vn 1 -6.8053515860810876E-05 0
vn 1 -6.8053515860810876E-05 0
vn -0.72324448823928833 0.69059205055236816 0
vn -0.72324448823928833 0.69059205055236816 0
vn -0.72324448823928833 0.69059205055236816 0
vn -0.72324448823928833 0.69059205055236816 0
vn -1 6.5398409788031131E-05 0
vn -1 6.5398409788031131E-05 0
vn -1 6.5398409788031131E-05 0
vn -1 6.5398409788031131E-05 0
vn -0.95094519853591919 -0.30935940146446228 0
vn -0.95094519853591919 -0.30935940146446228 0
vn -0.95094519853591919 -0.30935940146446228 0
vn -0.95094519853591919 -0.30935940146446228 0
vn 0 0 -1
vn 0 0 -1
vn 0 0 -1
vn 0 0 -1
vn 0 0 1
vn 0 0 1
vn 0 0 1
vn 0 0 1
f 18/18/18 17/17/17 20/20/20 19/19/19
f 24/24/24 21/21/21 22/22/22 23/23/23
f 1/1/1 3/3/3 4/4/4 2/2/2
f 5/5/5 7/7/7 8/8/8 6/6/6
f 9/9/9 11/11/11 12/12/12 10/10/10
f 13/13/13 15/15/15 16/16/16 14/14/14
