# Rhino

v 17119.08203125 9583.1865234375 354.51309204101563
v 17119.03515625 9583.1591796875 -145.48690795898438
v 20869.080078125 9582.931640625 354.16058349609375
v 20869.080078125 9582.931640625 354.16058349609375
v 20869.033203125 9582.904296875 -145.83940124511719
v 20869.111328125 10032.931640625 354.13540649414063
v 20869.111328125 10032.931640625 354.13540649414063
v 20869.064453125 10032.904296875 -145.86460876464844
v 17119.06640625 10033.1591796875 -145.51211547851563
v 17119.11328125 10033.1865234375 354.48788452148438
v 17119.06640625 10033.1591796875 -145.51211547851563
v 17119.03515625 9583.1591796875 -145.48690795898438
v 20869.033203125 9582.904296875 -145.83940124511719
v 17119.03515625 9583.1591796875 -145.48690795898438
v 17119.06640625 10033.1591796875 -145.51211547851563
v 17119.11328125 10033.1865234375 354.48788452148438
v 17119.08203125 9583.1865234375 354.51309204101563
v 20869.080078125 9582.931640625 354.16058349609375
v 20869.033203125 9582.904296875 -145.83940124511719
v 20869.064453125 10032.904296875 -145.86460876464844
v 17119.11328125 10033.1865234375 354.48788452148438
v 17119.08203125 9583.1865234375 354.51309204101563
v 20869.064453125 10032.904296875 -145.86460876464844
v 20869.111328125 10032.931640625 354.13540649414063
vt 0.11764711141586304 0.76780188083648682
vt 0.11764711141586304 0.65015476942062378
vt 0.99853515625 0.76780188083648682
vt 0.55882352590560913 0.11764711141586304
vt 0.55882352590560913 0
vt 0.66470593214035034 0.11764711141586304
vt 0 0
vt 0.11618226766586304 0
vt 0.11618226766586304 0.88088804483413696
vt 0.11764711141586304 0.11764711141586304
vt 0.11764711141586304 0
vt 0.22352950274944305 0
vt 0.11764711141586304 0.44117644429206848
vt 0.99853515625 0.44117644429206848
vt 0.99853515625 0.5470588207244873
vt 0.11764711141586304 0.33808052539825439
vt 0.11764711141586304 0.23219813406467438
vt 0.99853515625 0.23219813406467438
vt 0.99853515625 0.65015476942062378
vt 0.66470593214035034 0
vt 0 0.88088804483413696
vt 0.22352950274944305 0.11764711141586304
vt 0.11764711141586304 0.5470588207244873
vt 0.99853515625 0.33808052539825439
vn -6.7997367295902222E-05 -1 5.600319491350092E-05
vn -6.7997367295902222E-05 -1 5.600319491350092E-05
vn -6.7997367295902222E-05 -1 5.600319491350092E-05
vn 1 -6.8002635089214891E-05 -9.3998096417635679E-05
vn 1 -6.8002635089214891E-05 -9.3998096417635679E-05
vn 1 -6.8002635089214891E-05 -9.3998096417635679E-05
vn 6.7997367295902222E-05 1 -5.600319491350092E-05
vn 6.7997367295902222E-05 1 -5.600319491350092E-05
vn 6.7997367295902222E-05 1 -5.600319491350092E-05
vn -1 6.8002635089214891E-05 9.3998096417635679E-05
vn -1 6.8002635089214891E-05 9.3998096417635679E-05
vn -1 6.8002635089214891E-05 9.3998096417635679E-05
vn -9.4001901743467897E-05 -5.599680298473686E-05 -1
vn -9.4001901743467897E-05 -5.599680298473686E-05 -1
vn -9.4001901743467897E-05 -5.599680298473686E-05 -1
vn 9.4001901743467897E-05 5.599680298473686E-05 1
vn 9.4001901743467897E-05 5.599680298473686E-05 1
vn 9.4001901743467897E-05 5.599680298473686E-05 1
vn -6.7997367295902222E-05 -1 5.600319491350092E-05
vn 1 -6.8002635089214891E-05 -9.3998096417635679E-05
vn 6.7997367295902222E-05 1 -5.600319491350092E-05
vn -1 6.8002635089214891E-05 9.3998096417635679E-05
vn -9.4001901743467897E-05 -5.599680298473686E-05 -1
vn 9.4001901743467897E-05 5.599680298473686E-05 1
f 2/2/2 19/19/19 3/3/3 1/1/1
f 5/5/5 20/20/20 6/6/6 4/4/4
f 9/9/9 21/21/21 7/7/7 8/8/8
f 12/12/12 22/22/22 10/10/10 11/11/11
f 15/15/15 23/23/23 13/13/13 14/14/14
f 18/18/18 24/24/24 16/16/16 17/17/17
