# Rhino

v 26885.62109375 -1860.227294921875 4004.6357421875
v 26885.248046875 -1860.4500732421875 26.635854721069336
v 29489.59375 -1860.627197265625 26.39105224609375
v 29489.96875 -1860.4044189453125 4004.39111328125
v 29489.59375 -1860.627197265625 26.39105224609375
v 29505.654296875 6380.75048828125 4003.927978515625
v 29505.654296875 6380.75048828125 4003.927978515625
v 29505.28125 6380.52783203125 25.928098678588867
v 26901.30859375 6380.927734375 4004.1728515625
v 26901.30859375 6380.927734375 4004.1728515625
v 26900.93359375 6380.705078125 26.172903060913086
v 26885.248046875 -1860.4500732421875 26.635854721069336
v 29505.28125 6380.52783203125 25.928098678588867
v 29489.59375 -1860.627197265625 26.39105224609375
v 26900.93359375 6380.705078125 26.172903060913086
v 29505.654296875 6380.75048828125 4003.927978515625
v 26901.30859375 6380.927734375 4004.1728515625
v 29489.96875 -1860.4044189453125 4004.39111328125
v 29489.96875 -1860.4044189453125 4004.39111328125
v 29505.28125 6380.52783203125 25.928098678588867
v 26900.93359375 6380.705078125 26.172903060913086
v 26885.62109375 -1860.227294921875 4004.6357421875
v 26885.248046875 -1860.4500732421875 26.635854721069336
v 26885.62109375 -1860.227294921875 4004.6357421875
vt 0.61517459154129028 0.30070704221725464
vt 0.61517459154129028 0
vt 0.81300276517868042 0
vt 0.30217188596725464 0.60287892818450928
vt 0.30217188596725464 0.30217188596725464
vt 0.9267125129699707 0.60287892818450928
vt 0.30217188596725464 0.30070704221725464
vt 0.30217188596725464 0
vt 0.5 0.30070704221725464
vt 0 0
vt 0.30070704221725464 0
vt 0.30070704221725464 0.62600547075271606
vt 0.30217188596725464 0.99853515625
vt 0.9267125129699707 0.99853515625
vt 0.30217188596725464 0.80217188596725464
vt 0.30217188596725464 0.80070704221725464
vt 0.30217188596725464 0.60434377193450928
vt 0.9267125129699707 0.80070704221725464
vt 0.81300276517868042 0.30070704221725464
vt 0.9267125129699707 0.30217188596725464
vt 0.5 0
vt 0 0.62600547075271606
vt 0.9267125129699707 0.80217188596725464
vt 0.9267125129699707 0.60434377193450928
vn -6.7997367295902222E-05 -1 5.600319491350092E-05
vn -6.7997367295902222E-05 -1 5.600319491350092E-05
vn -6.7997367295902222E-05 -1 5.600319491350092E-05
vn 0.99999821186065674 -0.0019034916767850518 -9.3895141617394984E-05
vn 0.99999821186065674 -0.0019034916767850518 -9.3895141617394984E-05
vn 0.99999821186065674 -0.0019034916767850518 -9.3895141617394984E-05
vn 6.7997367295902222E-05 1 -5.600319491350092E-05
vn 6.7997367295902222E-05 1 -5.600319491350092E-05
vn 6.7997367295902222E-05 1 -5.600319491350092E-05
vn -0.99999821186065674 0.0019034916767850518 9.3895141617394984E-05
vn -0.99999821186065674 0.0019034916767850518 9.3895141617394984E-05
vn -0.99999821186065674 0.0019034916767850518 9.3895141617394984E-05
vn -9.4001901743467897E-05 -5.599680298473686E-05 -1
vn -9.4001901743467897E-05 -5.599680298473686E-05 -1
vn -9.4001901743467897E-05 -5.599680298473686E-05 -1
vn 9.4001901743467897E-05 5.599680298473686E-05 1
vn 9.4001901743467897E-05 5.599680298473686E-05 1
vn 9.4001901743467897E-05 5.599680298473686E-05 1
vn -6.7997367295902222E-05 -1 5.600319491350092E-05
vn 0.99999821186065674 -0.0019034916767850518 -9.3895141617394984E-05
vn 6.7997367295902222E-05 1 -5.600319491350092E-05
vn -0.99999821186065674 0.0019034916767850518 9.3895141617394984E-05
vn -9.4001901743467897E-05 -5.599680298473686E-05 -1
vn 9.4001901743467897E-05 5.599680298473686E-05 1
f 3/3/3 19/19/19 1/1/1 2/2/2
f 5/5/5 20/20/20 6/6/6 4/4/4
f 8/8/8 21/21/21 9/9/9 7/7/7
f 12/12/12 22/22/22 10/10/10 11/11/11
f 14/14/14 23/23/23 15/15/15 13/13/13
f 17/17/17 24/24/24 18/18/18 16/16/16
