# Rhino

v 20526.341796875 3556.990478515625 172.14947509765625
v 19471.833984375 3557.056640625 72.905784606933594
v 20991.16796875 3556.9521484375 50.887836456298828
v 16996.115234375 3557.228271484375 131.26594543457031
v 14998.5712890625 3557.355224609375 -28.545001983642578
v 22988.69140625 3556.811767578125 -29.301210403442383
v 16701.77734375 3557.270263671875 528.3201904296875
v 14998.630859375 3557.390869140625 611.4549560546875
v 19076.5703125 3557.10888671875 528.84857177734375
v 22988.75 3556.84765625 610.69879150390625
v 22988.88671875 6006.82958984375 290.56167602539063
v 22988.818359375 4783.86474609375 449.04824829101563
v 22988.87109375 6006.82080078125 130.56167602539063
v 22988.90234375 6006.8388671875 450.5616455078125
v 22988.970703125 7231.82958984375 290.49313354492188
v 22988.955078125 7231.82080078125 130.49313354492188
v 22988.984375 7231.8388671875 450.49310302734375
v 22988.7890625 4781.82080078125 130.63023376464844
v 22988.69140625 3556.811767578125 -29.301210403442383
v 22989.0234375 8456.8115234375 -29.575412750244141
v 22988.75 3556.84765625 610.69879150390625
v 22989.083984375 8456.84765625 610.424560546875
v 18993.978515625 8457.0927734375 130.80268859863281
v 20985.103515625 8456.95703125 130.87138366699219
v 18993.97265625 8457.087890625 50.802688598632813
v 16996.486328125 8457.25 530.99176025390625
v 18994.015625 8457.1142578125 530.80267333984375
v 17262.119140625 8457.2265625 427.99066162109375
v 20991.546875 8456.978515625 530.6136474609375
v 20991.537109375 8456.9736328125 450.61361694335938
v 22989.0234375 8456.8115234375 -29.575412750244141
v 14998.904296875 8457.35546875 -28.819202423095703
v 22989.083984375 8456.84765625 610.424560546875
v 17168.150390625 8457.212890625 70.806793212890625
v 14998.9638671875 8457.390625 611.1807861328125
v 14998.6845703125 4782.373046875 291.38644409179688
v 14998.77734375 5995.36767578125 406.41470336914063
v 14998.7529296875 6007.3642578125 131.31790161132813
v 14998.69921875 4782.3818359375 451.38644409179688
v 14998.8447265625 7158.82861328125 276.1302490234375
v 14998.904296875 8457.35546875 -28.819202423095703
v 14998.5712890625 3557.355224609375 -28.545001983642578
v 14998.8662109375 7232.3818359375 451.24932861328125
v 14998.9638671875 8457.390625 611.1807861328125
v 14998.6689453125 4782.3642578125 131.38644409179688
v 14998.630859375 3557.390869140625 611.4549560546875
v 22988.69140625 3556.811767578125 -29.301210403442383
v 14998.5712890625 3557.355224609375 -28.545001983642578
v 22989.0234375 8456.8115234375 -29.575412750244141
v 14998.9638671875 8457.390625 611.1807861328125
v 14998.630859375 3557.390869140625 611.4549560546875
v 22988.75 3556.84765625 610.69879150390625
v 14998.904296875 8457.35546875 -28.819202423095703
v 22989.083984375 8456.84765625 610.424560546875
vt 0.1361570805311203 0.55048948526382446
vt 0.1438574492931366 0.44547575712203979
vt 0.14555297791957855 0.59678119421005249
vt 0.13935196399688721 0.19892705976963043
vt 0.1517539918422699 0
vt 0.1517539918422699 0.79570823907852173
vt 0.10857739299535751 0.16961130499839783
vt 0.10214588791131973 0
vt 0.10851901769638062 0.40610849857330322
vt 0.10214588791131973 0.79570823907852173
vt 0.075876995921134949 0.24398696422576904
vt 0.063597582280635834 0.12219522893428802
vt 0.088279023766517639 0.24398696422576904
vt 0.063474968075752258 0.24398696422576904
vt 0.075876995921134949 0.36598044633865356
vt 0.088279023766517639 0.36598044633865356
vt 0.063474968075752258 0.36598044633865356
vt 0.088279023766517639 0.12199348211288452
vt 0.10068104416131973 0
vt 0.10068104416131973 0.48797392845153809
vt 0.051072943955659866 0
vt 0.051072943955659866 0.48797392845153809
vt 0.19042490422725677 0.39785411953926086
vt 0.19040496647357941 0.19956481456756592
vt 0.19662591814994812 0.39785411953926086
vt 0.15941984951496124 0.59678119421005249
vt 0.15941984951496124 0.39785411953926086
vt 0.16740179061889648 0.57032680511474609
vt 0.15941984951496124 0.19892705976963043
vt 0.16562086343765259 0.19892705976963043
vt 0.20282693207263947 0
vt 0.20282693207263947 0.79570823907852173
vt 0.1532188355922699 0
vt 0.19508874416351318 0.57968133687973022
vt 0.1532188355922699 0.79570823907852173
vt 0.024804050102829933 0.36598044633865356
vt 0.015882642939686775 0.24518318474292755
vt 0.037206076085567474 0.24398696422576904
vt 0.012402025051414967 0.36598044633865356
vt 0.025976290926337242 0.12931746244430542
vt 0.049608100205659866 0
vt 0.049608100205659866 0.48797392845153809
vt 0.012402025051414967 0.12199348211288452
vt 0 0
vt 0.037206076085567474 0.36598044633865356
vt 0 0.48797392845153809
vt 0.20429177582263947 0.48797392845153809
vt 0.99853515625 0.48797392845153809
vt 0.20429177582263947 0.97448301315307617
vt 0.20429177582263947 0.48650908470153809
vt 0.20429177582263947 0
vt 0.99853515625 0
vt 0.99853515625 0.97448301315307617
vt 0.99853515625 0.48650908470153809
vn -6.7997367295902222E-05 -1 5.6038268667180091E-05
vn -6.7997367295902222E-05 -1 5.6038268667180091E-05
vn -6.7997367295902222E-05 -1 5.6038268667180091E-05
vn -6.7997367295902222E-05 -1 5.6038268667180091E-05
vn -6.7997367295902222E-05 -1 5.6038268667180091E-05
vn -6.7997367295902222E-05 -1 5.6038268667180091E-05
vn -6.7997367295902222E-05 -1 5.6038268667180091E-05
vn -6.7997367295902222E-05 -1 5.6038268667180091E-05
vn -6.7997367295902222E-05 -1 5.6038268667180091E-05
vn -6.7997367295902222E-05 -1 5.6038268667180091E-05
vn 1 -6.8002605985384434E-05 -9.3481365183833987E-05
vn 1 -6.8002605985384434E-05 -9.3481365183833987E-05
vn 1 -6.8002605985384434E-05 -9.3481365183833987E-05
vn 1 -6.8002605985384434E-05 -9.3481365183833987E-05
vn 1 -6.8002605985384434E-05 -9.3481365183833987E-05
vn 1 -6.8002605985384434E-05 -9.3481365183833987E-05
vn 1 -6.8002605985384434E-05 -9.3481365183833987E-05
vn 1 -6.8002605985384434E-05 -9.3481365183833987E-05
vn 1 -6.8002605985384434E-05 -9.3481365183833987E-05
vn 1 -6.8002605985384434E-05 -9.3481365183833987E-05
vn 1 -6.8002605985384434E-05 -9.3481365183833987E-05
vn 1 -6.8002605985384434E-05 -9.3481365183833987E-05
vn 6.7997367295902222E-05 1 -5.6038268667180091E-05
vn 6.7997367295902222E-05 1 -5.6038268667180091E-05
vn 6.7997367295902222E-05 1 -5.6038268667180091E-05
vn 6.7997367295902222E-05 1 -5.6038268667180091E-05
vn 6.7997367295902222E-05 1 -5.6038268667180091E-05
vn 6.7997367295902222E-05 1 -5.6038268667180091E-05
vn 6.7997367295902222E-05 1 -5.6038268667180091E-05
vn 6.7997367295902222E-05 1 -5.6038268667180091E-05
vn 6.7997367295902222E-05 1 -5.6038268667180091E-05
vn 6.7997367295902222E-05 1 -5.6038268667180091E-05
vn 6.7997367295902222E-05 1 -5.6038268667180091E-05
vn 6.7997367295902222E-05 1 -5.6038268667180091E-05
vn 6.7997367295902222E-05 1 -5.6038268667180091E-05
vn -1 6.8002605985384434E-05 9.3481365183833987E-05
vn -1 6.8002605985384434E-05 9.3481365183833987E-05
vn -1 6.8002605985384434E-05 9.3481365183833987E-05
vn -1 6.8002605985384434E-05 9.3481365183833987E-05
vn -1 6.8002605985384434E-05 9.3481365183833987E-05
vn -1 6.8002605985384434E-05 9.3481365183833987E-05
vn -1 6.8002605985384434E-05 9.3481365183833987E-05
vn -1 6.8002605985384434E-05 9.3481365183833987E-05
vn -1 6.8002605985384434E-05 9.3481365183833987E-05
vn -1 6.8002605985384434E-05 9.3481365183833987E-05
vn -1 6.8002605985384434E-05 9.3481365183833987E-05
vn -9.4646740762982517E-05 -5.5952987167984247E-05 -1
vn -9.4646740762982517E-05 -5.5952987167984247E-05 -1
vn -9.4646740762982517E-05 -5.5952987167984247E-05 -1
vn 9.4646740762982517E-05 5.5952987167984247E-05 1
vn 9.4646740762982517E-05 5.5952987167984247E-05 1
vn 9.4646740762982517E-05 5.5952987167984247E-05 1
vn -9.4646740762982517E-05 -5.5952987167984247E-05 -1
vn 9.4646740762982517E-05 5.5952987167984247E-05 1
f 5/5/5 6/6/6 10/10/10 8/8/8
f 21/21/21 19/19/19 20/20/20 22/22/22
f 33/33/33 31/31/31 32/32/32 35/35/35
f 41/41/41 42/42/42 46/46/46 44/44/44
f 48/48/48 53/53/53 49/49/49 47/47/47
f 52/52/52 54/54/54 50/50/50 51/51/51
