# Rhino

mtllib TC_static_0.mtl
usemtl diffuse_White
v -63.578000000000003 -70.909999999999997 10
v -111.874 -83.850999999999999 36.350000000000001
v -98.406000000000006 -134.11699999999999 36.350000000000001
v -50.109000000000002 -121.176 20
v -50.109000000000002 -121.176 66.349999999999994
v -98.406000000000006 -134.11699999999999 66.349999999999994
v -63.578000000000003 -70.909999999999997 66.349999999999994
v -111.874 -83.850999999999999 66.349999999999994
vn 0.0039537134580314159 0.42379003763198853 -0.90575182437896729
vn -0.73449712991714478 0.58959370851516724 -0.3359958827495575
vn -0.50215476751327515 -0.57064497470855713 -0.64977294206619263
vn 0.58873158693313599 -0.57900035381317139 -0.56405115127563477
vn 0.70710635185241699 -0.40824699401855469 0.57735174894332886
vn -0.40825331211090088 -0.70710217952728271 0.57735240459442139
vn 0.18301010131835938 0.89433825016021729 0.40824794769287109
vn -0.70710641145706177 0.40825334191322327 0.57734715938568115
f 2//2 8//8 7//7 1//1
f 2//2 1//1 3//3
f 3//3 4//4 5//5 6//6
f 4//4 1//1 7//7 5//5
f 7//7 8//8 6//6 5//5
f 2//2 3//3 6//6 8//8
f 1//1 4//4 3//3
usemtl diffuse_Black
v 65.460999999999999 -90.209000000000003 20
v 75.219999999999999 -61.18 3.5920000000000001
v 65.460999999999999 -90.209000000000003 66.349999999999994
v 88.436999999999998 -21.867000000000001 8.4570000000000007
v 88.436999999999998 -21.867000000000001 66.349999999999994
v -50.109000000000002 -121.176 20
v -77.046999999999997 -20.645 0
v -31.146999999999998 -83.897999999999996 0
v 68.923000000000002 -57.084000000000003 0
v 77.046999999999997 20.645 0
v -50.109000000000002 -121.176 66.349999999999994
v -77.046999999999997 -20.645 66.349999999999994
v -56.402000000000001 56.402000000000001 66.349999999999994
v -56.402000000000001 56.402000000000001 0
v 20.645 77.046999999999997 66.349999999999994
v 20.645 77.046999999999997 0
v 77.046999999999997 20.645 66.349999999999994
vn 0.45951899886131287 -0.72005236148834229 -0.51996815204620361
vn 0.76587742567062378 -0.36944425106048584 -0.52625346183776855
vn 0.53509753942489624 -0.39817675948143005 0.74506771564483643
vn 0.85003173351287842 -0.047111917287111282 -0.52462035417556763
vn 0.88596051931381226 -0.027716079726815224 0.46293166279792786
vn -0.2187233567237854 -0.6878732442855835 -0.69209140539169312
vn -0.62457823753356934 -0.074978232383728027 -0.7773546576499939
vn -0.085310108959674835 -0.28104981780052185 -0.95589393377304077
vn 0.20488044619560242 -0.25074499845504761 -0.94612419605255127
vn 0.57839113473892212 0.24735146760940552 -0.77735507488250732
vn -0.40824577212333679 -0.70710927248001099 0.57734900712966919
vn -0.69474607706069946 -1.2432574294507504E-06 0.71925508975982666
vn -0.46291062235832214 0.46291062235832214 0.75592821836471558
vn -0.46291062235832214 0.46291062235832214 -0.75592821836471558
vn 0.22414219379425049 0.83651649951934814 0.50000041723251343
vn 0.22414219379425049 0.83651649951934814 -0.50000041723251343
vn 0.46887511014938354 0.27069792151451111 0.84076082706451416
f 9//9 10//10 12//12 13//13 11//11
f 12//12 10//10 17//17 18//18
f 21//21 20//20 19//19 11//11 13//13 25//25 23//23
f 9//9 14//14 16//16 17//17
f 17//17 16//16 15//15 22//22 24//24 18//18
f 14//14 15//15 16//16
f 14//14 19//19 20//20 15//15
f 21//21 22//22 15//15 20//20
f 23//23 24//24 22//22 21//21
f 25//25 18//18 24//24 23//23
f 12//12 18//18 25//25 13//13
f 10//10 9//9 17//17
f 14//14 9//9 11//11 19//19
usemtl diffuse_Black
v -63.578000000000003 -70.909999999999997 10
v -111.874 -83.850999999999999 36.350000000000001
v -98.406000000000006 -134.11699999999999 36.350000000000001
v -50.109000000000002 -121.176 20
v -50.109000000000002 -121.176 66.349999999999994
v -98.406000000000006 -134.11699999999999 66.349999999999994
v -63.578000000000003 -70.909999999999997 66.349999999999994
v -111.874 -83.850999999999999 66.349999999999994
vn 0.0039537134580314159 0.42379003763198853 -0.90575182437896729
vn -0.73449712991714478 0.58959370851516724 -0.3359958827495575
vn -0.50215476751327515 -0.57064497470855713 -0.64977294206619263
vn 0.58873158693313599 -0.57900035381317139 -0.56405115127563477
vn 0.70710635185241699 -0.40824699401855469 0.57735174894332886
vn -0.40825331211090088 -0.70710217952728271 0.57735240459442139
vn 0.18301010131835938 0.89433825016021729 0.40824794769287109
vn -0.70710641145706177 0.40825334191322327 0.57734715938568115
f 27//27 33//33 32//32 26//26
f 27//27 26//26 28//28
f 28//28 29//29 30//30 31//31
f 29//29 26//26 32//32 30//30
f 32//32 33//33 31//31 30//30
f 27//27 28//28 31//31 33//33
f 26//26 29//29 28//28
