# Rhino

mtllib g1_static_22.mtl
usemtl diffuse_White
v -49.200000000000003 214 179.09999999999999
v -7 214 179.09999999999999
v -49.200000000000003 236 179.09999999999999
v -7 236 179.09999999999999
v -49.200000000000003 236 152.09999999999999
v -7 236 152.09999999999999
v -49.200000000000003 214 152.09999999999999
v -7 214 152.09999999999999
vn -0.57735025882720947 -0.57735025882720947 0.57735025882720947
vn 0.57735025882720947 -0.57735025882720947 0.57735025882720947
vn -0.57735025882720947 0.57735025882720947 0.57735025882720947
vn 0.57735025882720947 0.57735025882720947 0.57735025882720947
vn -0.57735025882720947 0.57735025882720947 -0.57735025882720947
vn 0.57735025882720947 0.57735025882720947 -0.57735025882720947
vn -0.57735025882720947 -0.57735025882720947 -0.57735025882720947
vn 0.57735025882720947 -0.57735025882720947 -0.57735025882720947
f 1//1 2//2 4//4 3//3
f 5//5 6//6 8//8 7//7
f 3//3 4//4 6//6 5//5
f 4//4 2//2 8//8 6//6
f 2//2 1//1 7//7 8//8
f 1//1 3//3 5//5 7//7
