# Rhino

mtllib g1_static_2.mtl
usemtl diffuse_White
v -26.510000000000002 -64 0
v -26.510000000000002 -64 27.100000000000001
v 26.510000000000002 -64 0
v 26.510000000000002 -64 27.100000000000001
v 18.030999999999999 -18.030999999999999 0
v 18.030999999999999 -18.030999999999999 27.100000000000001
v 0 -25.5 0
v 0 -25.5 27.100000000000001
vn -0.60298424959182739 -0.31690827012062073 -0.73210597038269043
vn -0.60298424959182739 -0.31690827012062073 0.73210597038269043
vn 0.41419291496276855 -0.34478175640106201 -0.84235966205596924
vn 0.41419291496276855 -0.34478175640106201 0.84235966205596924
vn 0.37380948662757874 0.68777889013290405 -0.62227541208267212
vn 0.37380948662757874 0.68777889013290405 0.62227541208267212
vn -0.43534362316131592 0.53807806968688965 -0.72176718711853027
vn -0.43534362316131592 0.53807806968688965 0.72176718711853027
f 1//1 3//3 4//4 2//2
f 3//3 5//5 6//6 4//4
f 5//5 7//7 8//8 6//6
f 7//7 1//1 2//2 8//8
f 7//7 5//5 3//3 1//1
f 4//4 6//6 8//8 2//2
