# Rhino

v 1.7927831411361694 -0.029181750491261482 1.771239161491394
v 1.9266093969345093 -0.029181750491261482 1.7712430953979492
v 1.7927823066711426 0.013982929289340973 1.7913672924041748
v 1.926608681678772 0.013982929289340973 1.79137122631073
v 1.7927823066711426 0.013982929289340973 1.7913672924041748
v 1.926608681678772 0.013982929289340973 1.79137122631073
v 1.7927823066711426 0.012185142375528812 1.7952225208282471
v 1.9266084432601929 0.012185142375528812 1.7952264547348022
v 1.7927823066711426 0.012185142375528812 1.7952225208282471
v 1.9266084432601929 0.012185142375528812 1.7952264547348022
v 1.7927830219268799 -0.030979538336396217 1.7750945091247559
v 1.9266093969345093 -0.030979538336396217 1.775098443031311
v 1.7927830219268799 -0.030979538336396217 1.7750945091247559
v 1.9266093969345093 -0.030979538336396217 1.775098443031311
v 1.7927831411361694 -0.029181750491261482 1.771239161491394
v 1.9266093969345093 -0.029181750491261482 1.7712430953979492
v 1.7927831411361694 -0.029181750491261482 1.771239161491394
v 1.7927823066711426 0.013982929289340973 1.7913672924041748
v 1.7927823066711426 0.012185142375528812 1.7952225208282471
v 1.7927830219268799 -0.030979538336396217 1.7750945091247559
v 1.9266093969345093 -0.029181750491261482 1.7712430953979492
v 1.926608681678772 0.013982929289340973 1.79137122631073
v 1.9266084432601929 0.012185142375528812 1.7952264547348022
v 1.9266093969345093 -0.030979538336396217 1.775098443031311
vn 2.6641446311259642E-05 0.42262017726898193 -0.9063069224357605
vn 2.6641446311259642E-05 0.42262017726898193 -0.9063069224357605
vn 2.6641446311259642E-05 0.42262017726898193 -0.9063069224357605
vn 2.6641446311259642E-05 0.42262017726898193 -0.9063069224357605
vn -1.2423493899405003E-05 0.90630197525024414 0.42263069748878479
vn -1.2423493899405003E-05 0.90630197525024414 0.42263069748878479
vn -1.2423493899405003E-05 0.90630197525024414 0.42263069748878479
vn -1.2423493899405003E-05 0.90630197525024414 0.42263069748878479
vn -2.664148632902652E-05 -0.42261809110641479 0.9063078761100769
vn -2.664148632902652E-05 -0.42261809110641479 0.9063078761100769
vn -2.664148632902652E-05 -0.42261809110641479 0.9063078761100769
vn -2.664148632902652E-05 -0.42261809110641479 0.9063078761100769
vn 1.2423178304743487E-05 -0.9063069224357605 -0.42262014746665955
vn 1.2423178304743487E-05 -0.9063069224357605 -0.42262014746665955
vn 1.2423178304743487E-05 -0.9063069224357605 -0.42262014746665955
vn 1.2423178304743487E-05 -0.9063069224357605 -0.42262014746665955
vn -1 -4.0359759623243008E-06 -3.2802519854158163E-05
vn -1 -8.8233546193805523E-06 -1.9574767065932974E-05
vn -1 -1.3610732821689453E-05 -6.3470160966971889E-06
vn -1 -8.8233546193805523E-06 -1.9574767065932974E-05
vn 1 1.361079284833977E-05 6.3468510234088171E-06
vn 1 4.0356926547246985E-06 3.2803305657580495E-05
vn 1 -5.5394079936377238E-06 5.9259757108520716E-05
vn 1 4.0356926547246985E-06 3.2803305657580495E-05
f 1//1 3//3 4//4 2//2
f 5//5 7//7 8//8 6//6
f 9//9 11//11 12//12 10//10
f 13//13 15//15 16//16 14//14
f 18//18 17//17 20//20 19//19
f 24//24 21//21 22//22 23//23
