# Rhino

v 1.7927831411361694 -0.029181750491261482 1.771239161491394
v 1.9266093969345093 -0.029181750491261482 1.7712430953979492
v 1.7927839756011963 -0.013985748402774334 1.7386512756347656
v 1.9266103506088257 -0.013985748402774334 1.7386552095413208
v 1.7927839756011963 -0.013985748402774334 1.7386512756347656
v 1.9266103506088257 -0.013985748402774334 1.7386552095413208
v 1.7927838563919067 -0.0099686728790402412 1.7405245304107666
v 1.926609992980957 -0.0099686738103628159 1.7405284643173218
v 1.7927838563919067 -0.0099686728790402412 1.7405245304107666
v 1.926609992980957 -0.0099686738103628159 1.7405284643173218
v 1.7927829027175903 -0.025164676830172539 1.773112416267395
v 1.9266092777252197 -0.025164676830172539 1.7731163501739502
v 1.7927829027175903 -0.025164676830172539 1.773112416267395
v 1.9266092777252197 -0.025164676830172539 1.7731163501739502
v 1.7927831411361694 -0.029181750491261482 1.771239161491394
v 1.9266093969345093 -0.029181750491261482 1.7712430953979492
v 1.7927831411361694 -0.029181750491261482 1.771239161491394
v 1.7927839756011963 -0.013985748402774334 1.7386512756347656
v 1.7927838563919067 -0.0099686728790402412 1.7405245304107666
v 1.7927829027175903 -0.025164676830172539 1.773112416267395
v 1.9266093969345093 -0.029181750491261482 1.7712430953979492
v 1.9266103506088257 -0.013985748402774334 1.7386552095413208
v 1.926609992980957 -0.0099686738103628159 1.7405284643173218
v 1.9266092777252197 -0.025164676830172539 1.7731163501739502
vt 0 0
vt 0 1
vt 0.30756747722625732 0
vt 0.30756747722625732 1
vt 0.30756747722625732 0
vt 0.30756747722625732 1
vt 0.47608208656311035 0
vt 0.47608208656311035 1
vt 0.47608208656311035 0
vt 0.47608208656311035 1
vt 0.78364956378936768 0
vt 0.78364956378936768 1
vt 0.78364956378936768 0
vt 0.78364956378936768 1
vt 0.9521641731262207 0
vt 0.9521641731262207 1
vt 1 0.24513490498065948
vt 1 0
vt 0.95216512680053711 0
vt 0.95216512680053711 0.24513490498065948
vt 1 0.75486510992050171
vt 1 1
vt 0.95216512680053711 1
vt 0.95216512680053711 0.75486510992050171
vn 1.2424512533470988E-05 -0.90630757808685303 -0.42261871695518494
vn 1.2424512533470988E-05 -0.90630757808685303 -0.42261871695518494
vn 1.2424512533470988E-05 -0.90630757808685303 -0.42261871695518494
vn 1.2424512533470988E-05 -0.90630757808685303 -0.42261871695518494
vn 2.6644416720955633E-05 0.42261871695518494 -0.90630757808685303
vn 2.6644416720955633E-05 0.42261871695518494 -0.90630757808685303
vn 2.6644416720955633E-05 0.42261871695518494 -0.90630757808685303
vn 2.6644416720955633E-05 0.42261871695518494 -0.90630757808685303
vn -1.2424512533470988E-05 0.90630757808685303 0.42261871695518494
vn -1.2424512533470988E-05 0.90630757808685303 0.42261871695518494
vn -1.2424512533470988E-05 0.90630757808685303 0.42261871695518494
vn -1.2424512533470988E-05 0.90630757808685303 0.42261871695518494
vn -2.6644416720955633E-05 -0.42261871695518494 0.90630757808685303
vn -2.6644416720955633E-05 -0.42261871695518494 0.90630757808685303
vn -2.6644416720955633E-05 -0.42261871695518494 0.90630757808685303
vn -2.6644416720955633E-05 -0.42261871695518494 0.90630757808685303
vn -1 0 -2.9398870537988842E-05
vn -1 0 -2.9398870537988842E-05
vn -1 0 -2.9398870537988842E-05
vn -1 0 -2.9398870537988842E-05
vn 1 0 2.9398870537988842E-05
vn 1 0 2.9398870537988842E-05
vn 1 0 2.9398870537988842E-05
vn 1 0 2.9398870537988842E-05
f 1/1/1 3/3/3 4/4/4 2/2/2
f 5/5/5 7/7/7 8/8/8 6/6/6
f 9/9/9 11/11/11 12/12/12 10/10/10
f 13/13/13 15/15/15 16/16/16 14/14/14
f 18/18/18 17/17/17 20/20/20 19/19/19
f 24/24/24 21/21/21 22/22/22 23/23/23
